<svg xmlns="http://www.w3.org/2000/svg" version="1.1" width="15.5in" height="6.5in" viewBox = " 0 0 1395 585" >
<!-- Front--> 
<g transform="translate(22.5, 22.5) " > 
<polygon style="stroke:#000000; fill:none; stroke-width:0.9" points="0, 0 60.749999999999986, 0 60.749999999999986, 10.62 121.49999999999997, 10.62 121.49999999999997, 0 157.49999999999997, 0 157.49999999999997, 10.62 193.49999999999997, 10.62 193.49999999999997, 0 229.49999999999997, 0 229.49999999999997, 10.62 265.5, 10.62 265.5, 0 301.5, 0 301.5, 10.62 337.5, 10.62 337.5, 0 373.5, 0 373.5, 10.62 434.24999999999994, 10.62 434.24999999999994, 0 495, 0 495, 36 484.38, 36 484.38, 72 495, 72 495, 108 484.38, 108 484.38, 144 495, 144 494.99999999999994, 180 434.24999999999994, 180 434.24999999999994, 169.38 373.5, 169.38 373.5, 180 337.5, 180 337.5, 169.38 301.5, 169.38 301.5, 180 265.5, 180 265.5, 169.38 229.49999999999997, 169.38 229.49999999999997, 180 193.49999999999997, 180 193.49999999999997, 169.38 157.49999999999997, 169.38 157.49999999999997, 180 121.49999999999997, 180 121.49999999999997, 169.38 60.749999999999986, 169.38 60.749999999999986, 180 0, 180 0, 144 10.62, 144 10.62, 108 0, 108 0, 72 10.62, 72 10.62, 36 0, 36 "/> 
</g>
<!-- Back--> 
<g transform="translate(517.5, 22.5) " > 
<polygon style="stroke:#000000; fill:none; stroke-width:0.9" points="0, 0 60.749999999999986, 0 60.749999999999986, 10.62 121.49999999999997, 10.62 121.49999999999997, 0 157.49999999999997, 0 157.49999999999997, 10.62 193.49999999999997, 10.62 193.49999999999997, 0 229.49999999999997, 0 229.49999999999997, 10.62 265.5, 10.62 265.5, 0 301.5, 0 301.5, 10.62 337.5, 10.62 337.5, 0 373.5, 0 373.5, 10.62 434.24999999999994, 10.62 434.24999999999994, 0 495, 0 495, 36 484.38, 36 484.38, 72 495, 72 495, 108 484.38, 108 484.38, 144 495, 144 494.99999999999994, 180 434.24999999999994, 180 434.24999999999994, 169.38 373.5, 169.38 373.5, 180 337.5, 180 337.5, 169.38 301.5, 169.38 301.5, 180 265.5, 180 265.5, 169.38 229.49999999999997, 169.38 229.49999999999997, 180 193.49999999999997, 180 193.49999999999997, 169.38 157.49999999999997, 169.38 157.49999999999997, 180 121.49999999999997, 180 121.49999999999997, 169.38 60.749999999999986, 169.38 60.749999999999986, 180 0, 180 0, 144 10.62, 144 10.62, 108 0, 108 0, 72 10.62, 72 10.62, 36 0, 36 "/> 
</g>
<!-- Left--> 
<g transform="translate(1012.5, 22.5) " > 
<polygon style="stroke:#000000; fill:none; stroke-width:0.9" points="10.62, 0 45, 0 45, 10.62 90, 10.62 90, 0 126, 0 126, 10.62 162, 10.62 162, 0 198, 0 198, 10.62 234, 10.62 234, 0 270, 0 270, 10.62 315, 10.62 315, 0 349.38, 0 349.38, 36 360, 36 360, 72 349.38, 72 349.38, 108 360, 108 360, 144 349.38, 144 349.38, 180 315, 180 315, 169.38 270, 169.38 270, 180 234, 180 234, 169.38 198, 169.38 198, 180 162, 180 162, 169.38 126, 169.38 126, 180 90, 180 90, 169.38 45, 169.38 45, 180 10.62, 180 10.62, 144 0, 144 0, 108 10.62, 108 10.62, 72 0, 72 0, 36 10.62, 36 "/> 
</g>
<!-- Right--> 
<g transform="translate(1012.5, 202.5) " > 
<polygon style="stroke:#000000; fill:none; stroke-width:0.9" points="10.62, 0 45, 0 45, 10.62 90, 10.62 90, 0 126, 0 126, 10.62 162, 10.62 162, 0 198, 0 198, 10.62 234, 10.62 234, 0 270, 0 270, 10.62 315, 10.62 315, 0 349.38, 0 349.38, 36 360, 36 360, 72 349.38, 72 349.38, 108 360, 108 360, 144 349.38, 144 349.38, 180 315, 180 315, 169.38 270, 169.38 270, 180 234, 180 234, 169.38 198, 169.38 198, 180 162, 180 162, 169.38 126, 169.38 126, 180 90, 180 90, 169.38 45, 169.38 45, 180 10.62, 180 10.62, 144 0, 144 0, 108 10.62, 108 10.62, 72 0, 72 0, 36 10.62, 36 "/> 
</g>
<!-- Top--> 
<g transform="translate(22.5, 202.5) " > 
<polygon style="stroke:#000000; fill:none; stroke-width:0.9" points="10.62, 10.62 60.749999999999986, 10.62 60.749999999999986, 0 121.49999999999997, 0 121.49999999999997, 10.62 157.49999999999997, 10.62 157.49999999999997, 0 193.49999999999997, 0 193.49999999999997, 10.62 229.49999999999997, 10.62 229.49999999999997, 0 265.5, 0 265.5, 10.62 301.5, 10.62 301.5, 0 337.5, 0 337.5, 10.62 373.5, 10.62 373.5, 0 434.24999999999994, 0 434.24999999999994, 10.62 484.38, 10.62 484.38, 45 495, 45 495, 90 484.38, 90 484.38, 126 495, 126 495, 162 484.38, 162 484.38, 198 495, 198 495, 234 484.38, 234 484.38, 270 495, 270 495, 315 484.38, 315 484.37999999999994, 349.38 434.24999999999994, 349.38 434.24999999999994, 360 373.5, 360 373.5, 349.38 337.5, 349.38 337.5, 360 301.5, 360 301.5, 349.38 265.5, 349.38 265.5, 360 229.49999999999997, 360 229.49999999999997, 349.38 193.49999999999997, 349.38 193.49999999999997, 360 157.49999999999997, 360 157.49999999999997, 349.38 121.49999999999997, 349.38 121.49999999999997, 360 60.749999999999986, 360 60.749999999999986, 349.38 10.62, 349.38 10.62, 315 0, 315 0, 270 10.62, 270 10.62, 234 0, 234 0, 198 10.62, 198 10.62, 162 0, 162 0, 126 10.62, 126 10.62, 90 0, 90 0, 45 10.62, 45 "/> 
</g>
<!-- Bottom--> 
<g transform="translate(517.5, 202.5) " > 
<polygon style="stroke:#000000; fill:none; stroke-width:0.9" points="10.62, 10.62 60.749999999999986, 10.62 60.749999999999986, 0 121.49999999999997, 0 121.49999999999997, 10.62 157.49999999999997, 10.62 157.49999999999997, 0 193.49999999999997, 0 193.49999999999997, 10.62 229.49999999999997, 10.62 229.49999999999997, 0 265.5, 0 265.5, 10.62 301.5, 10.62 301.5, 0 337.5, 0 337.5, 10.62 373.5, 10.62 373.5, 0 434.24999999999994, 0 434.24999999999994, 10.62 484.38, 10.62 484.38, 45 495, 45 495, 90 484.38, 90 484.38, 126 495, 126 495, 162 484.38, 162 484.38, 198 495, 198 495, 234 484.38, 234 484.38, 270 495, 270 495, 315 484.38, 315 484.37999999999994, 349.38 434.24999999999994, 349.38 434.24999999999994, 360 373.5, 360 373.5, 349.38 337.5, 349.38 337.5, 360 301.5, 360 301.5, 349.38 265.5, 349.38 265.5, 360 229.49999999999997, 360 229.49999999999997, 349.38 193.49999999999997, 349.38 193.49999999999997, 360 157.49999999999997, 360 157.49999999999997, 349.38 121.49999999999997, 349.38 121.49999999999997, 360 60.749999999999986, 360 60.749999999999986, 349.38 10.62, 349.38 10.62, 315 0, 315 0, 270 10.62, 270 10.62, 234 0, 234 0, 198 10.62, 198 10.62, 162 0, 162 0, 126 10.62, 126 10.62, 90 0, 90 0, 45 10.62, 45 "/> 
</g></svg>