<?xml version="1.0" encoding="UTF-8" standalone="no"?>
<!-- Created with Inkscape (http://www.inkscape.org/) -->

<svg
   xmlns:dc="http://purl.org/dc/elements/1.1/"
   xmlns:cc="http://creativecommons.org/ns#"
   xmlns:rdf="http://www.w3.org/1999/02/22-rdf-syntax-ns#"
   xmlns:svg="http://www.w3.org/2000/svg"
   xmlns="http://www.w3.org/2000/svg"
   xmlns:sodipodi="http://sodipodi.sourceforge.net/DTD/sodipodi-0.dtd"
   xmlns:inkscape="http://www.inkscape.org/namespaces/inkscape"
   width="8.2677164in"
   height="11.692913in"
   viewBox="0 0 744.09449 1052.3622"
   id="svg2"
   version="1.1"
   inkscape:version="0.91 r13725"
   sodipodi:docname="LittleGear.svg">
  <sodipodi:namedview
     id="base"
     pagecolor="#ffffff"
     bordercolor="#666666"
     borderopacity="1.0"
     inkscape:pageopacity="0.0"
     inkscape:pageshadow="2"
     inkscape:zoom="1.4"
     inkscape:cx="-129.72015"
     inkscape:cy="546.27275"
     inkscape:document-units="in"
     inkscape:current-layer="layer1"
     showgrid="false"
     inkscape:window-width="1440"
     inkscape:window-height="809"
     inkscape:window-x="0"
     inkscape:window-y="0"
     inkscape:window-maximized="1"
     units="in" />
  <defs
     id="defs4" />
  <metadata
     id="metadata7">
    <rdf:RDF>
      <cc:Work
         rdf:about="">
        <dc:format>image/svg+xml</dc:format>
        <dc:type
           rdf:resource="http://purl.org/dc/dcmitype/StillImage" />
        <dc:title></dc:title>
      </cc:Work>
    </rdf:RDF>
  </metadata>
  <g
     id="layer1"
     inkscape:groupmode="layer"
     inkscape:label="Layer 1">
    <path
       id="path4166"
       inkscape:label="Gear 15"
       style="fill:none;stroke:#000000;stroke-width:1;stroke-miterlimit:4;stroke-dasharray:none"
       d="m 10.347666,538.32802 3.376981,0.4 c 0.328432,0.0169 1.3157,0.0232 2.968496,-0.34576 1.972302,-0.44923 4.795317,-1.42906 8.224568,-3.54398 a 64.241926,64.241926 0 0 0 0,-4.95219 c -3.429251,-2.11492 -6.252266,-3.09475 -8.224568,-3.54398 -1.652796,-0.36897 -2.640064,-0.36263 -2.968496,-0.34576 l -3.376981,0.4 a 2.8342026,2.8342026 0 0 1 -3.1277719,-2.31276 47.23671,47.23671 0 0 0 -0.6534111,-3.07406 2.8342026,2.8342026 0 0 1 1.9166756,-3.385 l 3.2477204,-1.00812 c 0.3069,-0.11817 1.211394,-0.51394 2.571221,-1.52327 1.619069,-1.2126 3.799492,-3.25593 6.072052,-6.58281 a 64.241926,64.241926 0 0 0 -2.014237,-4.52406 c -3.992994,-0.53727 -6.970476,-0.28416 -8.9549815,0.10765 -1.6599815,0.33518 -2.559316,0.74253 -2.8524914,0.89153 l -2.9223305,1.73896 a 2.8342026,2.8342026 0 0 1 -3.79804862,-0.84064 47.23671,47.23671 0 0 0 -1.84725238,-2.54252 2.8342026,2.8342026 0 0 1 0.3741682,-3.87193 l 2.55689993,-2.24194 C 1.1481802,496.9946 1.8135054,496.26516 2.6452375,494.79 c 0.985884,-1.7663 2.1467006,-4.51984 2.8696226,-8.48343 a 64.241926,64.241926 0 0 0 -3.6801946,-3.31366 c -3.8663121,1.13327 -6.4834267,2.57555 -8.1369973,3.74066 -1.3801409,0.98138 -2.0360386,1.7193 -2.2432647,1.97466 l -1.9623825,2.77724 a 2.8342026,2.8342026 0 0 1 -3.811608,0.77685 47.23671,47.23671 0 0 0 -2.721687,-1.57137 2.8342026,2.8342026 0 0 1 -1.233036,-3.68937 l 1.423968,-3.08809 c 0.117536,-0.30715 0.428651,-1.24413 0.588474,-2.93006 0.182231,-2.01459 0.122725,-5.00222 -0.82899,-8.91718 a 64.241926,64.241926 0 0 0 -4.709813,-1.53031 c -3.071109,2.60787 -4.875334,4.98993 -5.912053,6.72688 -0.861661,1.45789 -1.160711,2.39879 -1.246157,2.71636 l -0.663121,3.33531 a 2.8342026,2.8342026 0 0 1 -3.166105,2.26001 47.23671,47.23671 0 0 0 -3.125518,-0.32851 2.8342026,2.8342026 0 0 1 -2.627037,-2.86889 l 0.04482,-3.40029 c -0.01755,-0.3284 -0.114441,-1.31092 -0.654162,-2.91609 -0.652932,-1.91454 -1.922471,-4.61967 -4.384264,-7.80907 a 64.241926,64.241926 0 0 0 -4.925061,0.51765 c -1.744884,3.63153 -2.424253,6.5415 -2.66486,8.54995 -0.194193,1.68232 -0.08469,2.66351 -0.03358,2.98838 l 0.7508,3.31667 a 2.8342026,2.8342026 0 0 1 -1.973155,3.35239 47.23671,47.23671 0 0 0 -2.988917,0.97116 2.8342026,2.8342026 0 0 1 -3.5668,-1.55235 l -1.342079,-3.12455 c -0.149606,-0.29287 -0.637746,-1.15104 -1.783689,-2.39791 -1.375196,-1.48345 -3.635253,-3.43834 -7.181457,-5.3507 a 64.241926,64.241926 0 0 0 -4.288723,2.4761 c -0.116952,4.02728 0.446005,6.96199 1.043111,8.89467 0.506853,1.61585 1.005981,2.46768 1.184807,2.74367 l 2.034902,2.72455 a 2.8342026,2.8342026 0 0 1 -0.439028,3.86512 47.23671,47.23671 0 0 0 -2.335506,2.1029 2.8342026,2.8342026 0 0 1 -3.889831,0.0326 l -2.49692,-2.30854 c -0.25579,-0.2067 -1.050779,-0.79213 -2.604799,-1.46511 -1.859677,-0.79586 -4.719468,-1.66249 -8.736912,-1.96714 a 64.241926,64.241926 0 0 0 -2.910824,4.0064 c 1.531201,3.72667 3.239144,6.17869 4.570718,7.70142 1.12026,1.27 1.922705,1.84517 2.198329,2.02457 l 2.967149,1.66133 a 2.8342026,2.8342026 0 0 1 1.171012,3.70952 47.23671,47.23671 0 0 0 -1.278265,2.87103 2.8342026,2.8342026 0 0 1 -3.540274,1.61193 l -3.220021,-1.09338 c -0.317747,-0.0848 -1.282122,-0.29625 -2.975516,-0.27897 -2.022602,0.0294 -4.987644,0.40082 -8.781674,1.75655 a 64.241926,64.241926 0 0 0 -1.02962,4.84397 c 2.914597,2.78169 5.472206,4.32704 7.308008,5.17651 1.539963,0.70456 2.506976,0.90362 2.831739,0.9554 l 3.38635,0.31085 a 2.8342026,2.8342026 0 0 1 2.578572,2.91253 47.23671,47.23671 0 0 0 0,3.14273 2.8342026,2.8342026 0 0 1 -2.578572,2.91253 l -3.38635,0.31085 c -0.324763,0.0518 -1.291776,0.25085 -2.831739,0.9554 -1.835802,0.84947 -4.393411,2.39482 -7.308008,5.17651 a 64.241926,64.241926 0 0 0 1.02962,4.84397 c 3.79403,1.35573 6.759072,1.7272 8.781674,1.75655 1.693394,0.0173 2.657769,-0.19419 2.975516,-0.27897 l 3.220021,-1.09338 a 2.8342026,2.8342026 0 0 1 3.540274,1.61193 47.23671,47.23671 0 0 0 1.278265,2.87103 2.8342026,2.8342026 0 0 1 -1.171012,3.70952 l -2.967149,1.66133 c -0.275624,0.1794 -1.078069,0.75457 -2.198329,2.02457 -1.331574,1.52273 -3.039517,3.97475 -4.570718,7.70142 a 64.241926,64.241926 0 0 0 2.910824,4.0064 c 4.017444,-0.30465 6.877235,-1.17128 8.736912,-1.96714 1.55402,-0.67298 2.349009,-1.25841 2.604799,-1.46511 l 2.49692,-2.30854 a 2.8342026,2.8342026 0 0 1 3.889831,0.0326 47.23671,47.23671 0 0 0 2.335506,2.1029 2.8342026,2.8342026 0 0 1 0.439028,3.86512 l -2.034902,2.72455 c -0.178826,0.27599 -0.677954,1.12782 -1.184807,2.74367 -0.597106,1.93268 -1.160063,4.86739 -1.043111,8.89467 a 64.241926,64.241926 0 0 0 4.288723,2.4761 c 3.546204,-1.91236 5.806261,-3.86725 7.181457,-5.3507 1.145943,-1.24687 1.634083,-2.10504 1.783689,-2.39791 l 1.342079,-3.12455 a 2.8342026,2.8342026 0 0 1 3.5668,-1.55235 47.23671,47.23671 0 0 0 2.988917,0.97116 2.8342026,2.8342026 0 0 1 1.973155,3.35239 l -0.7508,3.31667 c -0.05111,0.32487 -0.160615,1.30607 0.03358,2.98838 0.240607,2.00845 0.919976,4.91842 2.66486,8.54995 a 64.241926,64.241926 0 0 0 4.925061,0.51765 c 2.461793,-3.1894 3.731332,-5.89453 4.384264,-7.80907 0.539721,-1.60517 0.63661,-2.58769 0.654162,-2.91609 l -0.04482,-3.40029 a 2.8342026,2.8342026 0 0 1 2.627037,-2.86889 47.23671,47.23671 0 0 0 3.125518,-0.32851 2.8342026,2.8342026 0 0 1 3.166105,2.26001 l 0.663121,3.33531 c 0.08545,0.31757 0.384496,1.25847 1.246157,2.71636 1.036719,1.73695 2.840944,4.11901 5.912053,6.72688 a 64.241926,64.241926 0 0 0 4.709813,-1.53031 c 0.951715,-3.91496 1.011221,-6.90259 0.82899,-8.91718 -0.159823,-1.68593 -0.470938,-2.62291 -0.588474,-2.93006 l -1.423968,-3.08809 a 2.8342026,2.8342026 0 0 1 1.233036,-3.68937 47.23671,47.23671 0 0 0 2.721687,-1.57137 2.8342026,2.8342026 0 0 1 3.811608,0.77685 l 1.9623825,2.77724 c 0.2072261,0.25536 0.8631238,0.99329 2.2432647,1.97466 1.6535706,1.16511 4.2706852,2.60739 8.1369973,3.74066 a 64.241926,64.241926 0 0 0 3.6801946,-3.31366 c -0.722922,-3.96359 -1.8837386,-6.71713 -2.8696226,-8.48343 -0.8317321,-1.47516 -1.4970573,-2.2046 -1.72935877,-2.43738 l -2.55689993,-2.24194 a 2.8342026,2.8342026 0 0 1 -0.3741682,-3.87193 47.23671,47.23671 0 0 0 1.84725238,-2.54252 2.8342026,2.8342026 0 0 1 3.79804862,-0.84064 l 2.9223305,1.73896 c 0.2931754,0.149 1.1925099,0.55635 2.8524914,0.89153 1.9845055,0.39181 4.9619875,0.64492 8.9549815,0.10765 a 64.241926,64.241926 0 0 0 2.014237,-4.52405 c -2.27256,-3.32689 -4.452983,-5.37022 -6.072052,-6.58282 -1.359827,-1.00933 -2.264321,-1.4051 -2.571221,-1.52327 l -3.2477204,-1.00812 a 2.8342026,2.8342026 0 0 1 -1.9166756,-3.385 47.23671,47.23671 0 0 0 0.6534111,-3.07405 2.8342026,2.8342026 0 0 1 3.1277719,-2.31277 z"
       inkscape:connector-curvature="0" />
  </g>
</svg>
