<?xml version="1.0" encoding="UTF-8" standalone="no"?>
<!-- Created with Inkscape (http://www.inkscape.org/) -->

<svg
   xmlns:dc="http://purl.org/dc/elements/1.1/"
   xmlns:cc="http://creativecommons.org/ns#"
   xmlns:rdf="http://www.w3.org/1999/02/22-rdf-syntax-ns#"
   xmlns:svg="http://www.w3.org/2000/svg"
   xmlns="http://www.w3.org/2000/svg"
   xmlns:sodipodi="http://sodipodi.sourceforge.net/DTD/sodipodi-0.dtd"
   xmlns:inkscape="http://www.inkscape.org/namespaces/inkscape"
   width="210mm"
   height="297mm"
   viewBox="0 0 744.09448819 1052.3622047"
   id="svg2"
   version="1.1"
   inkscape:version="0.91 r13725"
   sodipodi:docname="Gears.svg">
  <sodipodi:namedview
     id="base"
     pagecolor="#ffffff"
     bordercolor="#666666"
     borderopacity="1.0"
     inkscape:pageopacity="0.0"
     inkscape:pageshadow="2"
     inkscape:zoom="2.8"
     inkscape:cx="1155.7922"
     inkscape:cy="509.32815"
     inkscape:document-units="px"
     inkscape:current-layer="layer1"
     showgrid="false"
     inkscape:window-width="1440"
     inkscape:window-height="809"
     inkscape:window-x="0"
     inkscape:window-y="0"
     inkscape:window-maximized="1" />
  <defs
     id="defs4" />
  <metadata
     id="metadata7">
    <rdf:RDF>
      <cc:Work
         rdf:about="">
        <dc:format>image/svg+xml</dc:format>
        <dc:type
           rdf:resource="http://purl.org/dc/dcmitype/StillImage" />
        <dc:title></dc:title>
      </cc:Work>
    </rdf:RDF>
  </metadata>
  <g
     inkscape:label="Layer 1"
     inkscape:groupmode="layer"
     id="layer1">
    <path
       d="m 1153.8756,535.05446 c 1.2341,-0.38737 2.4996,-0.79727 3.796,-1.23096 3.5263,-1.17964 7.2807,-2.53508 11.2501,-4.09106 a 682.5,682.5 0 0 0 0,-6.16858 c -3.9694,-1.55597 -7.7238,-2.91142 -11.2501,-4.09105 -1.2964,-0.4337 -2.5619,-0.8436 -3.796,-1.23097 a 2.8125,2.8125 0 0 1 -1.916,-2.77673 665.625,665.625 0 0 0 -0.015,-0.86743 2.8125,2.8125 0 0 1 1.8179,-2.84191 c 1.2198,-0.43019 2.4703,-0.88402 3.7508,-1.36269 3.4829,-1.30198 7.1877,-2.78763 11.1003,-4.48119 a 682.5,682.5 0 0 0 -0.2152,-6.16481 c -4.0213,-1.4165 -7.8207,-2.6401 -11.386,-3.69595 -1.3107,-0.38818 -2.5898,-0.75367 -3.8366,-1.09773 a 2.8125,2.8125 0 0 1 -2.0118,-2.70818 665.625,665.625 0 0 0 -0.045,-0.86637 2.8125,2.8125 0 0 1 1.7177,-2.90362 c 1.204,-0.47251 2.4378,-0.96969 3.7009,-1.49276 3.4353,-1.42274 7.0861,-3.03678 10.9372,-4.86586 a 682.5,682.5 0 0 0 -0.4303,-6.15354 c -4.0682,-1.2753 -7.908,-2.36555 -11.508,-3.29634 -1.3235,-0.3422 -2.6146,-0.66282 -3.8726,-0.96316 a 2.8125,2.8125 0 0 1 -2.1051,-2.63632 665.625,665.625 0 0 0 -0.076,-0.86426 2.8125,2.8125 0 0 1 1.6153,-2.9618 c 1.1868,-0.51423 2.4025,-1.05418 3.6465,-1.62101 3.3837,-1.54177 6.9758,-3.28223 10.7608,-5.24459 a 682.5,682.5 0 0 0 -0.6448,-6.13478 c -4.1102,-1.13255 -7.9858,-2.08812 -11.616,-2.8927 -1.3347,-0.29581 -2.6361,-0.57118 -3.9039,-0.82743 a 2.8125,2.8125 0 0 1 -2.1958,-2.56125 665.625,665.625 0 0 0 -0.1057,-0.86109 2.8125,2.8125 0 0 1 1.5109,-3.01637 c 1.1681,-0.55534 2.3643,-1.13739 3.5878,-1.74728 3.3277,-1.65892 6.857,-3.52369 10.5711,-5.61695 a 682.5,682.5 0 0 0 -0.8585,-6.10854 c -4.1472,-0.98841 -8.0537,-1.80815 -11.7099,-2.48554 -1.3441,-0.24905 -2.6544,-0.47883 -3.9303,-0.69069 a 2.8125,2.8125 0 0 1 -2.2839,-2.48305 665.625,665.625 0 0 0 -0.1357,-0.85688 2.8125,2.8125 0 0 1 1.4048,-3.06726 c 1.148,-0.59577 2.3231,-1.2192 3.5245,-1.87143 3.2679,-1.77404 6.7299,-3.76084 10.3687,-5.98245 a 682.5,682.5 0 0 0 -1.0711,-6.07486 c -4.1792,-0.84307 -8.112,-1.52598 -11.7895,-2.07536 -1.3521,-0.20198 -2.6696,-0.3859 -3.9521,-0.55309 a 2.8125,2.8125 0 0 1 -2.3691,-2.40184 665.625,665.625 0 0 0 -0.1655,-0.85162 2.8125,2.8125 0 0 1 1.2968,-3.11442 c 1.1265,-0.63547 2.2792,-1.29954 3.4571,-1.99329 3.204,-1.88701 6.5945,-3.99343 10.1536,-6.34067 a 682.5,682.5 0 0 0 -1.2825,-6.03378 c -4.2061,-0.6967 -8.1603,-1.24194 -11.8548,-1.66265 -1.3582,-0.15467 -2.6813,-0.2925 -3.969,-0.41483 a 2.8125,2.8125 0 0 1 -2.4514,-2.31769 665.625,665.625 0 0 0 -0.1952,-0.84533 2.8125,2.8125 0 0 1 1.1874,-3.15777 c 1.1036,-0.6744 2.2324,-1.3783 3.3854,-2.11274 3.1362,-1.99767 6.4512,-4.22113 9.9262,-6.69116 a 682.5,682.5 0 0 0 -1.4924,-5.98534 c -4.2278,-0.54949 -8.1986,-0.9564 -11.9055,-1.24791 -1.3629,-0.10718 -2.69,-0.19874 -3.9811,-0.27606 a 2.8125,2.8125 0 0 1 -2.5308,-2.23073 665.625,665.625 0 0 0 -0.2246,-0.838 2.8125,2.8125 0 0 1 1.0765,-3.19729 c 1.0794,-0.71251 2.183,-1.45537 3.3096,-2.2296 3.0645,-2.10591 6.2999,-4.44371 9.6866,-7.0335 a 682.5,682.5 0 0 0 -1.7003,-5.92962 c -4.2445,-0.4016 -8.2271,-0.66968 -11.9419,-0.83165 -1.3657,-0.0595 -2.6952,-0.10474 -3.9882,-0.13696 a 2.8125,2.8125 0 0 1 -2.6072,-2.14104 665.625,665.625 0 0 0 -0.2536,-0.82965 2.8125,2.8125 0 0 1 0.9641,-3.23291 c 1.054,-0.74974 2.1309,-1.53066 3.2299,-2.34375 2.9891,-2.21157 6.1409,-4.66086 9.4352,-7.36727 a 682.5,682.5 0 0 0 -1.9062,-5.86666 c -4.2559,-0.25324 -8.2454,-0.38216 -11.9636,-0.41439 -1.367,-0.0118 -2.6973,-0.0106 -3.9906,0.002 a 2.8125,2.8125 0 0 1 -2.6803,-2.04875 665.625,665.625 0 0 0 -0.2825,-0.82029 2.8125,2.8125 0 0 1 0.8508,-3.26459 c 1.0271,-0.78607 2.0761,-1.6041 3.146,-2.45504 2.9102,-2.31455 5.9746,-4.87234 9.1724,-7.69207 a 682.5,682.5 0 0 0 -2.1098,-5.79657 c -4.2621,-0.10454 -8.2537,-0.0942 -11.9708,0.003 -1.3666,0.0359 -2.696,0.0835 -3.9881,0.14158 a 2.8125,2.8125 0 0 1 -2.7501,-1.95396 665.625,665.625 0 0 0 -0.3109,-0.80993 2.8125,2.8125 0 0 1 0.7363,-3.2923 c 0.999,-0.82143 2.0189,-1.67557 3.0584,-2.56334 2.8276,-2.4147 5.8009,-5.07787 8.8983,-8.00749 a 682.5,682.5 0 0 0 -2.3107,-5.7194 c -4.2632,0.0443 -8.252,0.19394 -11.9634,0.42116 -1.3645,0.0835 -2.6915,0.17757 -3.9807,0.28069 a 2.8125,2.8125 0 0 1 -2.8167,-1.85679 665.625,665.625 0 0 0 -0.339,-0.7986 2.8125,2.8125 0 0 1 0.621,-3.31598 c 0.9698,-0.85581 1.9592,-1.74502 2.9671,-2.66852 2.7416,-2.51191 5.6201,-5.27723 8.6134,-8.31316 a 682.5,682.5 0 0 0 -2.509,-5.63527 c -4.259,0.19301 -8.2401,0.48181 -11.9413,0.83842 -1.3608,0.13111 -2.6836,0.27139 -3.9685,0.41944 a 2.8125,2.8125 0 0 1 -2.8798,-1.75736 665.625,665.625 0 0 0 -0.3667,-0.78628 2.8125,2.8125 0 0 1 0.5049,-3.33563 c 0.9393,-0.88913 1.8971,-1.81233 2.8722,-2.77045 2.6523,-2.60606 5.4325,-5.47016 8.3181,-8.6087 a 682.5,682.5 0 0 0 -2.7042,-5.54428 c -4.2497,0.34154 -8.2183,0.76911 -11.9048,1.25467 -1.3554,0.17852 -2.6725,0.36487 -3.9515,0.55768 a 2.8125,2.8125 0 0 1 -2.9393,-1.65579 665.625,665.625 0 0 0 -0.3939,-0.773 2.8125,2.8125 0 0 1 0.3882,-3.35122 c 0.9077,-0.92137 1.8327,-1.87744 2.7737,-2.869 2.5597,-2.69704 5.2384,-5.65642 8.0126,-8.89375 a 682.5,682.5 0 0 0 -2.896,-5.44653 c -4.2352,0.48964 -8.1865,1.05545 -11.8538,1.66937 -1.3483,0.22571 -2.6581,0.45792 -3.9296,0.69524 a 2.8125,2.8125 0 0 1 -2.9953,-1.55219 665.625,665.625 0 0 0 -0.4206,-0.75879 2.8125,2.8125 0 0 1 0.2709,-3.36272 c 0.8751,-0.95249 1.7661,-1.94025 2.672,-2.96405 2.464,-2.78473 5.0377,-5.83579 7.6973,-9.16797 a 682.5,682.5 0 0 0 -3.0843,-5.34215 c -4.2155,0.63715 -8.1447,1.34052 -11.7883,2.08205 -1.3396,0.27263 -2.6406,0.55041 -3.903,0.83196 a 2.8125,2.8125 0 0 1 -3.0477,-1.44671 665.625,665.625 0 0 0 -0.4468,-0.74365 2.8125,2.8125 0 0 1 0.1534,-3.37013 c 0.8413,-0.98245 1.6973,-2.0007 2.5669,-3.0555 2.3654,-2.86902 4.831,-6.00804 7.3727,-9.43101 a 682.5,682.5 0 0 0 -3.2689,-5.23125 c -4.1907,0.78388 -8.0929,1.62394 -11.7085,2.49219 -1.3292,0.31921 -2.6197,0.64223 -3.8715,0.96766 a 2.8125,2.8125 0 0 1 -3.0963,-1.33947 665.625,665.625 0 0 0 -0.4725,-0.7276 2.8125,2.8125 0 0 1 0.036,-3.37343 c 0.8065,-1.01121 1.6264,-2.05872 2.4587,-3.14322 2.2638,-2.94983 4.6184,-6.17299 7.039,-9.68257 a 682.5,682.5 0 0 0 -3.4494,-5.11398 c -4.1608,0.92966 -8.0314,1.90539 -11.6144,2.89929 -1.3173,0.3654 -2.5957,0.73326 -3.8354,1.10218 a 2.8125,2.8125 0 0 1 -3.1412,-1.23059 665.625,665.625 0 0 0 -0.4976,-0.71067 2.8125,2.8125 0 0 1 -0.082,-3.37262 c 0.7707,-1.03874 1.5536,-2.11423 2.3475,-3.22711 2.1594,-3.02703 4.4001,-6.33041 6.6968,-9.92233 a 682.5,682.5 0 0 0 -3.6258,-4.99048 c -4.1259,1.0743 -7.96,2.18452 -11.5061,3.30285 -1.3038,0.41116 -2.5686,0.82341 -3.7946,1.23537 a 2.8125,2.8125 0 0 1 -3.1822,-1.12022 665.625,665.625 0 0 0 -0.5221,-0.69286 2.8125,2.8125 0 0 1 -0.1997,-3.36771 c 0.7339,-1.065 1.4788,-2.16716 2.2334,-3.30707 2.0525,-3.10055 4.1765,-6.48011 6.3464,-10.15 a 682.5,682.5 0 0 0 -3.7977,-4.8609 c -4.0858,1.21763 -7.8789,2.46098 -11.3839,3.7024 -1.2886,0.45641 -2.5382,0.91255 -3.7491,1.36704 a 2.8125,2.8125 0 0 1 -3.2194,-1.00847 665.625,665.625 0 0 0 -0.5459,-0.67423 2.8125,2.8125 0 0 1 -0.3171,-3.35869 c 0.6963,-1.08996 1.4023,-2.21744 2.1166,-3.383 1.943,-3.170289 3.9478,-6.621919 5.9884,-10.365299 a 682.5,682.5 0 0 0 -3.9651,-4.7254 c -4.0409,1.35949 -7.7882,2.73445 -11.24772,4.09744 -1.2719,0.5011 -2.50485,1.00057 -3.69916,1.49705 a 2.8125,2.8125 0 0 1 -3.25261,-0.89551 665.625,665.625 0 0 0 -0.56917,-0.65476 2.8125,2.8125 0 0 1 -0.43412,-3.34557 c 0.65787,-1.1136 1.32407,-2.26504 1.99731,-3.45481 1.83119,-3.23617 3.71431,-6.75566 5.62294,-10.56798 a 682.5,682.5 0 0 0 -4.12758,-4.58415 c -3.99094,1.49969 -7.68799,3.0046 -11.09784,4.48748 -1.25364,0.54519 -2.4684,1.08739 -3.64466,1.62525 a 2.8125,2.8125 0 0 1 -3.28188,-0.78145 665.625,665.625 0 0 0 -0.59167,-0.6345 2.8125,2.8125 0 0 1 -0.55062,-3.32839 c 0.61861,-1.13588 1.24422,-2.30986 1.87552,-3.52241 1.71714,-3.2981 3.47628,-6.88117 5.2507,-10.75778 a 682.5,682.5 0 0 0 -4.28505,-4.43729 c -3.93617,1.638 -7.57845,3.27106 -10.93447,4.87205 -1.23384,0.5886 -2.42895,1.17286 -3.58572,1.75145 a 2.8125,2.8125 0 0 1 -3.30715,-0.66644 665.625,665.625 0 0 0 -0.61346,-0.61346 2.8125,2.8125 0 0 1 -0.66644,-3.3071 c 0.57859,-1.1568 1.16285,-2.3519 1.75145,-3.5858 1.60099,-3.356 3.23401,-6.9983 4.87206,-10.9344 a 682.5,682.5 0 0 0 -4.4373,-4.2851 c -3.87661,1.7744 -7.45967,3.5336 -10.75778,5.2507 -1.21255,0.6313 -2.38653,1.2569 -3.52241,1.8755 a 2.8125,2.8125 0 0 1 -3.32839,-0.5506 665.625,665.625 0 0 0 -0.63449,-0.5917 2.8125,2.8125 0 0 1 -0.78145,-3.2818 c 0.53786,-1.1763 1.08005,-2.3911 1.62524,-3.6447 1.48289,-3.4098 2.98779,-7.1069 4.48748,-11.0978 a 682.5,682.5 0 0 0 -4.58415,-4.1276 c -3.81231,1.9086 -7.3318,3.7917 -10.56797,5.6229 -1.18978,0.6733 -2.34121,1.3395 -3.45481,1.9973 a 2.8125,2.8125 0 0 1 -3.34558,-0.4341 665.625,665.625 0 0 0 -0.65476,-0.5692 2.8125,2.8125 0 0 1 -0.89551,-3.2526 c 0.49648,-1.1943 0.99595,-2.4272 1.49706,-3.6991 1.36298,-3.4596 2.73795,-7.2069002 4.09743,-11.2477002 a 682.5,682.5 0 0 0 -4.7254,-3.9651 c -3.74338,2.0405 -7.19501,4.0453 -10.3653,5.9883 -1.16556,0.7144 -2.29304,1.4204 -3.383,2.1167 a 2.8125,2.8125 0 0 1 -3.35869,-0.3171 665.625,665.625 0 0 0 -0.67422,-0.546 2.8125,2.8125 0 0 1 -1.00848,-3.2193 c 0.4545,-1.211 0.91063,-2.4606 1.36704,-3.7492 1.24142,-3.505 2.48477,-7.298 3.70241,-11.3838 a 682.5,682.5 0 0 0 -4.86091,-3.7977998 c -3.66989,2.1699 -7.04945,4.2939998 -10.15,6.3463998 -1.13991,0.7546 -2.24207,1.4995 -3.30707,2.2335 a 2.8125,2.8125 0 0 1 -3.36771,-0.1997 665.625,665.625 0 0 0 -0.69286,-0.5221 2.8125,2.8125 0 0 1 -1.12022,-3.1822 c 0.41196,-1.2261 0.82421,-2.4908998 1.23537,-3.7945998 1.11834,-3.5462 2.22855,-7.3803 3.30286,-11.5061 a 682.5,682.5 0 0 0 -4.99049,-3.6258 c -3.59192,2.2966 -6.89529,4.5373 -9.92232,6.6968 -1.11289,0.7939 -2.18838,1.5768 -3.22711,2.3475 a 2.8125,2.8125 0 0 1 -3.37263,-0.082 665.625,665.625 0 0 0 -0.71067,-0.4976 2.8125,2.8125 0 0 1 -1.23059,-3.1412 c 0.36892,-1.2396 0.73678,-2.518 1.10219,-3.8353 0.99389,-3.5831 1.96963,-7.4536 2.89928,-11.6144 a 682.5,682.5 0 0 0 -5.11398,-3.4494 c -3.50958,2.4206 -6.73274,4.7752 -9.68257,7.0389 -1.0845,0.8323 -2.13201,1.6523 -3.14321,2.4587 a 2.8125,2.8125 0 0 1 -3.37344,0.036 665.625,665.625 0 0 0 -0.7276,-0.4726 2.8125,2.8125 0 0 1 -1.33947,-3.0963 c 0.32544,-1.2518 0.64845,-2.5422 0.96767,-3.8715 0.86824,-3.6155 1.7083,-7.5177 2.49218,-11.7085 a 682.5,682.5 0 0 0 -5.23125,-3.2688 c -3.42296,2.5416 -6.56199,5.0073 -9.43101,7.3726 -1.05479,0.8696 -2.07305,1.7257 -3.05549,2.5669 a 2.8125,2.8125 0 0 1 -3.37014,0.1534 665.625,665.625 0 0 0 -0.74365,-0.4468 2.8125,2.8125 0 0 1 -1.44671,-3.0477 c 0.28155,-1.2624 0.55933,-2.5633 0.83196,-3.9029 0.74154,-3.6437 1.4449,-7.5728 2.08205,-11.7883 a 682.5,682.5 0 0 0 -5.34214,-3.0843 c -3.33219,2.6595 -6.38325,5.2332 -9.16797,7.6973 -1.02381,0.9058 -2.01157,1.7969 -2.96405,2.6719 a 2.8125,2.8125 0 0 1 -3.36273,0.271 665.625,665.625 0 0 0 -0.75879,-0.4206 2.8125,2.8125 0 0 1 -1.55219,-2.9954 c 0.23732,-1.2714 0.46953,-2.5813 0.69524,-3.9296 0.61392,-3.6673 1.17973,-7.6186 1.66937,-11.8538 a 682.5,682.5 0 0 0 -5.44652,-2.8959 c -3.23734,2.7742 -6.19672,5.4528 -8.89376,8.0125 -0.99156,0.9411 -1.94762,1.866 -2.86899,2.7738 a 2.8125,2.8125 0 0 1 -3.35123,0.3881 665.625,665.625 0 0 0 -0.773,-0.3938 2.8125,2.8125 0 0 1 -1.65578,-2.9394 c 0.1928,-1.2789 0.37916,-2.5961 0.55768,-3.9514 0.48556,-3.6865 0.91312,-7.6552 1.25466,-11.9049 a 682.5,682.5 0 0 0 -5.54428,-2.7041 c -3.13854,2.8855 -6.00264,5.6658 -8.6087,8.318 -0.95812,0.9751 -1.88132,1.9329 -2.77044,2.8722 a 2.8125,2.8125 0 0 1 -3.33564,0.5049 665.625,665.625 0 0 0 -0.78628,-0.3666 2.8125,2.8125 0 0 1 -1.75735,-2.8798 c 0.14805,-1.2849 0.28832,-2.6078 0.41943,-3.9685 0.35661,-3.7012 0.64541,-7.6824 0.83843,-11.9414 a 682.5,682.5 0 0 0 -5.63528,-2.509 c -3.03593,2.9933 -5.80125,5.8718 -8.31316,8.6134 -0.9235,1.008 -1.81271,1.9974 -2.66851,2.9672 a 2.8125,2.8125 0 0 1 -3.31599,0.621 665.625,665.625 0 0 0 -0.79859,-0.339 2.8125,2.8125 0 0 1 -1.85679,-2.8167 c 0.10311,-1.2893 0.19714,-2.6162 0.28068,-3.9807 0.22722,-3.7114 0.3769,-7.700201 0.42116,-11.963401 a 682.5,682.5 0 0 0 -5.7194,-2.3108 c -2.92961,3.0974 -5.59279,6.0707 -8.00749,8.898301 -0.88776,1.0396 -1.7419,2.0594 -2.56334,3.0585 a 2.8125,2.8125 0 0 1 -3.29229,0.7363 665.625,665.625 0 0 0 -0.80994,-0.3109 2.8125,2.8125 0 0 1 -1.95396,-2.7502 c 0.0581,-1.2921 0.10571,-2.621501 0.14158,-3.988101 0.0976,-3.717 0.10795,-7.7086 0.003,-11.9708 a 682.5,682.5 0 0 0 -5.79657,-2.1097 c -2.81973,3.1977 -5.37752,6.2622 -7.69207,9.1723 -0.85094,1.0699 -1.66896,2.1189 -2.45503,3.1461 a 2.8125,2.8125 0 0 1 -3.26459,0.8507 665.625,665.625 0 0 0 -0.8203,-0.2824 2.8125,2.8125 0 0 1 -2.04875,-2.6803 c 0.0129,-1.2933 0.0142,-2.6236 0.002,-3.9906 -0.0322,-3.7182 -0.16115,-7.7077 -0.41438,-11.9636 a 682.5,682.5 0 0 0 -5.86667,-1.9062 c -2.70641,3.2942 -5.15569,6.446 -7.36727,9.4352 -0.81308,1.0989 -1.594,2.1759 -2.34375,3.2298 a 2.8125,2.8125 0 0 1 -3.23291,0.9642 665.625,665.625 0 0 0 -0.82965,-0.2537 2.8125,2.8125 0 0 1 -2.14104,-2.6071 c -0.0322,-1.293 -0.0774,-2.6225 -0.13696,-3.9883 -0.16197,-3.7148 -0.43005,-7.6974 -0.83165,-11.9418 a 682.5,682.5 0 0 0 -5.92961,-1.7003 c -2.5898,3.3867 -4.9276,6.622 -7.03351,9.6865 -0.77423,1.1267 -1.51709,2.2302 -2.2296,3.3097 a 2.8125,2.8125 0 0 1 -3.19729,1.0764 665.625,665.625 0 0 0 -0.838,-0.2245 2.8125,2.8125 0 0 1 -2.23072,-2.5309 c -0.0773,-1.2911 -0.16889,-2.6182 -0.27606,-3.981 -0.29152,-3.7069 -0.69843,-7.6777 -1.24792,-11.9056 a 682.5,682.5 0 0 0 -5.98534,-1.4923 c -2.47002,3.475 -4.69348,6.79 -6.69116,9.9261 -0.73444,1.153 -1.43834,2.2818 -2.11273,3.3855 a 2.8125,2.8125 0 0 1 -3.15778,1.1873 665.625,665.625 0 0 0 -0.84533,-0.1951 2.8125,2.8125 0 0 1 -2.31769,-2.4515 c -0.12233,-1.2876 -0.26016,-2.6107 -0.41483,-3.969 -0.42071,-3.6944 -0.96594,-7.6486 -1.66265,-11.8547 a 682.5,682.5 0 0 0 -6.03377,-1.2826 c -2.34725,3.5591 -4.45366,6.9497 -6.34067,10.1536 -0.69376,1.178 -1.35783,2.3306 -1.9933,3.4572 a 2.8125,2.8125 0 0 1 -3.11442,1.2968 665.625,665.625 0 0 0 -0.85162,-0.1655 2.8125,2.8125 0 0 1 -2.40183,-2.3691 c -0.1672,-1.2826 -0.35112,-2.6001 -0.5531,-3.9521 -0.54938,-3.6775 -1.23229,-7.6103 -2.07536,-11.7895 a 682.5,682.5 0 0 0 -6.07486,-1.0712 c -2.2216,3.6388 -4.2084,7.1009 -5.98245,10.3687 -0.65222,1.2014 -1.27566,2.3766 -1.87143,3.5246 a 2.8125,2.8125 0 0 1 -3.06726,1.4047 665.625,665.625 0 0 0 -0.85688,-0.1357 2.8125,2.8125 0 0 1 -2.48305,-2.2838 c -0.21185,-1.2759 -0.44164,-2.5862 -0.69068,-3.9304 -0.6774,-3.6561 -1.49714,-7.5626 -2.48555,-11.7099 a 682.5,682.5 0 0 0 -6.10854,-0.8585 c -2.09326,3.7142 -3.95803,7.2434 -5.61694,10.5712 -0.6099,1.2234 -1.19195,2.4196 -1.74729,3.5877 a 2.8125,2.8125 0 0 1 -3.01637,1.511 665.625,665.625 0 0 0 -0.86109,-0.1058 2.8125,2.8125 0 0 1 -2.56124,-2.1957 c -0.25626,-1.2678 -0.53163,-2.5693 -0.82743,-3.9039 -0.80458,-3.6303 -1.76016,-7.5058 -2.8927,-11.616 a 682.5,682.5 0 0 0 -6.13479,-0.6448 c -1.96236,3.7849 -3.70282,7.3771 -5.24459,10.7607 -0.56683,1.244 -1.10678,2.4598 -1.62101,3.6466 a 2.8125,2.8125 0 0 1 -2.9618,1.6152 665.625,665.625 0 0 0 -0.86426,-0.076 2.8125,2.8125 0 0 1 -2.63631,-2.105 c -0.30034,-1.2581 -0.62097,-2.5491 -0.96317,-3.8727 -0.93079,-3.5999 -2.02103,-7.4397 -3.29633,-11.5079 a 682.5,682.5 0 0 0 -6.15355,-0.4303 c -1.82907,3.8511 -3.44311,7.5018 -4.86586,10.9372 -0.52306,1.263 -1.02025,2.4969 -1.49276,3.7009 a 2.8125,2.8125 0 0 1 -2.90362,1.7176 665.625,665.625 0 0 0 -0.86637,-0.045 2.8125,2.8125 0 0 1 -2.70817,-2.0117 c -0.34407,-1.2468 -0.70956,-2.5259 -1.09774,-3.8367 -1.05585,-3.5653 -2.27944,-7.3647 -3.69595,-11.3859 a 682.5,682.5 0 0 0 -6.16481,-0.2153 c -1.69356,3.9126 -3.17921,7.6174 -4.48119,11.1004 -0.47867,1.2805 -0.93249,2.531 -1.36269,3.7507 a 2.8125,2.8125 0 0 1 -2.84191,1.818 665.625,665.625 0 0 0 -0.86743,-0.015 2.8125,2.8125 0 0 1 -2.77673,-1.916 c -0.38737,-1.234 -0.79727,-2.4996 -1.23096,-3.796 -1.17964,-3.5263 -2.53508,-7.2807 -4.09106,-11.25 a 682.5,682.5 0 0 0 -6.16858,0 c -1.55597,3.9693 -2.91142,7.7237 -4.09105,11.25 -0.4337,1.2964 -0.8436,2.562 -1.23097,3.796 a 2.8125,2.8125 0 0 1 -2.77673,1.916 665.625,665.625 0 0 0 -0.86743,0.015 2.8125,2.8125 0 0 1 -2.84191,-1.818 c -0.43019,-1.2197 -0.88402,-2.4702 -1.36269,-3.7507 -1.30198,-3.483 -2.78763,-7.1878 -4.48119,-11.1004 a 682.5,682.5 0 0 0 -6.16481,0.2153 c -1.4165,4.0212 -2.6401,7.8206 -3.69595,11.3859 -0.38818,1.3108 -0.75367,2.5899 -1.09773,3.8367 a 2.8125,2.8125 0 0 1 -2.70818,2.0117 665.625,665.625 0 0 0 -0.86637,0.045 2.8125,2.8125 0 0 1 -2.90362,-1.7176 c -0.4725,-1.204 -0.96969,-2.4379 -1.49276,-3.7009 -1.42274,-3.4354 -3.03678,-7.0861 -4.86586,-10.9372 a 682.5,682.5 0 0 0 -6.15354,0.4303 c -1.2753,4.0682 -2.36555,7.908 -3.29634,11.5079 -0.3422,1.3236 -0.66282,2.6146 -0.96316,3.8727 a 2.8125,2.8125 0 0 1 -2.63632,2.105 665.625,665.625 0 0 0 -0.86426,0.076 2.8125,2.8125 0 0 1 -2.9618,-1.6152 c -0.51423,-1.1868 -1.05418,-2.4026 -1.62101,-3.6466 -1.54177,-3.3836 -3.28223,-6.9758 -5.24459,-10.7607 a 682.5,682.5 0 0 0 -6.13478,0.6448 c -1.13255,4.1102 -2.08812,7.9857 -2.8927,11.616 -0.29581,1.3346 -0.57118,2.6361 -0.82743,3.9039 a 2.8125,2.8125 0 0 1 -2.56125,2.1957 665.625,665.625 0 0 0 -0.86109,0.1058 2.8125,2.8125 0 0 1 -3.01637,-1.511 c -0.55534,-1.1681 -1.13738,-2.3643 -1.74728,-3.5877 -1.65892,-3.3278 -3.52369,-6.857 -5.61695,-10.5712 a 682.5,682.5 0 0 0 -6.10854,0.8585 c -0.98841,4.1473 -1.80815,8.0538 -2.48554,11.7099 -0.24905,1.3442 -0.47883,2.6545 -0.69069,3.9304 a 2.8125,2.8125 0 0 1 -2.48305,2.2838 665.625,665.625 0 0 0 -0.85688,0.1357 2.8125,2.8125 0 0 1 -3.06726,-1.4047 c -0.59577,-1.148 -1.2192,-2.3232 -1.87143,-3.5246 -1.77404,-3.2678 -3.76084,-6.7299 -5.98245,-10.3687 a 682.5,682.5 0 0 0 -6.07486,1.0712 c -0.84307,4.1792 -1.52598,8.112 -2.07536,11.7895 -0.20198,1.352 -0.3859,2.6695 -0.55309,3.9521 a 2.8125,2.8125 0 0 1 -2.40184,2.3691 665.625,665.625 0 0 0 -0.85162,0.1655 2.8125,2.8125 0 0 1 -3.11442,-1.2968 c -0.63547,-1.1266 -1.29954,-2.2792 -1.99329,-3.4572 -1.88701,-3.2039 -3.99343,-6.5945 -6.34067,-10.1536 a 682.5,682.5 0 0 0 -6.03378,1.2826 c -0.6967,4.2061 -1.24194,8.1603 -1.66265,11.8547 -0.15467,1.3583 -0.2925,2.6814 -0.41483,3.969 a 2.8125,2.8125 0 0 1 -2.31769,2.4515 665.625,665.625 0 0 0 -0.84533,0.1951 2.8125,2.8125 0 0 1 -3.15777,-1.1873 c -0.6744,-1.1037 -1.3783,-2.2325 -2.11274,-3.3855 -1.99767,-3.1361 -4.22113,-6.4511 -6.69116,-9.9261 a 682.5,682.5 0 0 0 -5.98534,1.4923 c -0.54949,4.2279 -0.9564,8.1987 -1.24791,11.9056 -0.10718,1.3628 -0.19874,2.6899 -0.27606,3.981 a 2.8125,2.8125 0 0 1 -2.23073,2.5309 665.625,665.625 0 0 0 -0.838,0.2245 2.8125,2.8125 0 0 1 -3.19729,-1.0764 c -0.71251,-1.0795 -1.45536,-2.183 -2.2296,-3.3097 -2.10591,-3.0645 -4.4437,-6.2998 -7.0335,-9.6865 a 682.5,682.5 0 0 0 -5.92962,1.7003 c -0.4016,4.2444 -0.66968,8.227 -0.83165,11.9418 -0.0596,1.3658 -0.10474,2.6953 -0.13696,3.9883 a 2.8125,2.8125 0 0 1 -2.14104,2.6071 665.625,665.625 0 0 0 -0.82965,0.2537 2.8125,2.8125 0 0 1 -3.23291,-0.9642 c -0.74974,-1.0539 -1.53066,-2.1309 -2.34375,-3.2298 -2.21157,-2.9892 -4.66086,-6.141 -7.36727,-9.4352 a 682.5,682.5 0 0 0 -5.86666,1.9062 c -0.25324,4.2559 -0.38216,8.2454 -0.41439,11.9636 -0.0118,1.367 -0.0106,2.6973 0.002,3.9906 a 2.8125,2.8125 0 0 1 -2.04875,2.6803 665.625,665.625 0 0 0 -0.82029,0.2824 2.8125,2.8125 0 0 1 -3.26459,-0.8507 c -0.78607,-1.0272 -1.6041,-2.0762 -2.45504,-3.1461 -2.31455,-2.9101 -4.87234,-5.9746 -7.69207,-9.1723 a 682.5,682.5 0 0 0 -5.79657,2.1097 c -0.10454,4.2622 -0.0942,8.2538 0.003,11.9708 0.0359,1.3666 0.0835,2.696001 0.14158,3.988101 a 2.8125,2.8125 0 0 1 -1.95396,2.7502 665.625,665.625 0 0 0 -0.80993,0.3109 2.8125,2.8125 0 0 1 -3.2923,-0.7363 c -0.82143,-0.9991 -1.67557,-2.0189 -2.56334,-3.0585 -2.4147,-2.827601 -5.07787,-5.800901 -8.00749,-8.898301 a 682.5,682.5 0 0 0 -5.7194,2.3108 c 0.0443,4.2632 0.19394,8.252001 0.42117,11.963401 0.0835,1.3645 0.17756,2.6914 0.28068,3.9807 a 2.8125,2.8125 0 0 1 -1.85679,2.8167 665.625,665.625 0 0 0 -0.7986,0.339 2.8125,2.8125 0 0 1 -3.31598,-0.621 c -0.85581,-0.9698 -1.74502,-1.9592 -2.66852,-2.9672 -2.51191,-2.7416 -5.27723,-5.6201 -8.31316,-8.6134 a 682.5,682.5 0 0 0 -5.63527,2.509 c 0.19301,4.259 0.48181,8.2402 0.83842,11.9414 0.13111,1.3607 0.27139,2.6836 0.41944,3.9685 a 2.8125,2.8125 0 0 1 -1.75736,2.8798 665.625,665.625 0 0 0 -0.78628,0.3666 2.8125,2.8125 0 0 1 -3.33563,-0.5049 c -0.88913,-0.9393 -1.81233,-1.8971 -2.77045,-2.8722 -2.60606,-2.6522 -5.47015,-5.4325 -8.6087,-8.318 a 682.5,682.5 0 0 0 -5.54428,2.7041 c 0.34154,4.2497 0.76911,8.2184 1.25467,11.9049 0.17852,1.3553 0.36487,2.6725 0.55768,3.9514 a 2.8125,2.8125 0 0 1 -1.65579,2.9394 665.625,665.625 0 0 0 -0.773,0.3938 2.8125,2.8125 0 0 1 -3.35122,-0.3881 c -0.92137,-0.9078 -1.87744,-1.8327 -2.869,-2.7738 -2.69704,-2.5597 -5.65642,-5.2383 -8.89375,-8.0125 a 682.5,682.5 0 0 0 -5.44653,2.8959 c 0.48964,4.2352 1.05545,8.1865 1.66937,11.8538 0.22571,1.3483 0.45792,2.6582 0.69524,3.9296 a 2.8125,2.8125 0 0 1 -1.55219,2.9954 665.625,665.625 0 0 0 -0.75879,0.4206 2.8125,2.8125 0 0 1 -3.36272,-0.271 c -0.95249,-0.875 -1.94025,-1.7661 -2.96405,-2.6719 -2.78473,-2.4641 -5.83579,-5.0378 -9.16797,-7.6973 a 682.5,682.5 0 0 0 -5.34214,3.0843 c 0.63714,4.2155 1.34051,8.1446 2.08204,11.7883 0.27263,1.3396 0.55041,2.6405 0.83196,3.9029 a 2.8125,2.8125 0 0 1 -1.44671,3.0477 665.625,665.625 0 0 0 -0.74365,0.4468 2.8125,2.8125 0 0 1 -3.37013,-0.1534 c -0.98245,-0.8412 -2.0007,-1.6973 -3.0555,-2.5669 -2.86902,-2.3653 -6.00804,-4.831 -9.43101,-7.3726 a 682.5,682.5 0 0 0 -5.23125,3.2688 c 0.78388,4.1908 1.62394,8.093 2.49219,11.7085 0.31921,1.3293 0.64223,2.6197 0.96766,3.8715 a 2.8125,2.8125 0 0 1 -1.33947,3.0963 665.625,665.625 0 0 0 -0.7276,0.4726 2.8125,2.8125 0 0 1 -3.37343,-0.036 c -1.01121,-0.8064 -2.05872,-1.6264 -3.14322,-2.4587 -2.94982,-2.2637 -6.17299,-4.6183 -9.68257,-7.0389 a 682.5,682.5 0 0 0 -5.11398,3.4494 c 0.92966,4.1608 1.90539,8.0313 2.89929,11.6144 0.3654,1.3173 0.73326,2.5957 1.10218,3.8353 a 2.8125,2.8125 0 0 1 -1.23059,3.1412 665.625,665.625 0 0 0 -0.71067,0.4976 2.8125,2.8125 0 0 1 -3.37262,0.082 c -1.038736,-0.7707 -2.114226,-1.5536 -3.227112,-2.3475 -3.027031,-2.1595 -6.330403,-4.4002 -9.922329,-6.6968 a 682.5,682.5 0 0 0 -4.990482,3.6258 c 1.074303,4.1258 2.184519,7.9599 3.302858,11.5061 0.411159,1.3037 0.823406,2.5684998 1.235368,3.7945998 a 2.8125,2.8125 0 0 1 -1.120219,3.1822 665.625,665.625 0 0 0 -0.692865,0.5221 2.8125,2.8125 0 0 1 -3.36771,0.1997 c -1.064997,-0.734 -2.167155,-1.4789 -3.30707,-2.2335 -3.100549,-2.0524 -6.480108,-4.1764998 -10.149999,-6.3463998 a 682.5,682.5 0 0 0 -4.860903,3.7977998 c 1.217637,4.0858 2.460986,7.8788 3.702403,11.3838 0.456409,1.2886 0.912546,2.5382 1.367045,3.7492 a 2.8125,2.8125 0 0 1 -1.008479,3.2193 665.625,665.625 0 0 0 -0.674222,0.546 2.8125,2.8125 0 0 1 -3.358689,0.3171 c -1.089962,-0.6963 -2.217446,-1.4023 -3.383002,-2.1167 -3.170291,-1.943 -6.621918,-3.9478 -10.365303,-5.9883 a 682.5,682.5 0 0 0 -4.725402,3.9651 c 1.359489,4.0408 2.734455,7.7881002 4.097438,11.2477002 0.501103,1.2719 1.000573,2.5048 1.497055,3.6991 a 2.8125,2.8125 0 0 1 -0.89551,3.2526 665.625,665.625 0 0 0 -0.654756,0.5692 2.8125,2.8125 0 0 1 -3.345577,0.4341 c -1.1136,-0.6578 -2.265035,-1.324 -3.454811,-1.9973 -3.23617,-1.8312 -6.755661,-3.7143 -10.567979,-5.6229 a 682.5,682.5 0 0 0 -4.584144,4.1276 c 1.499684,3.9909 3.004592,7.688 4.487481,11.0978 0.545186,1.2536 1.087381,2.4684 1.625242,3.6447 a 2.8125,2.8125 0 0 1 -0.781451,3.2818 665.625,665.625 0 0 0 -0.634494,0.5917 2.8125,2.8125 0 0 1 -3.328388,0.5506 c -1.135881,-0.6186 -2.309864,-1.2442 -3.522412,-1.8755 -3.298106,-1.7171 -6.881173,-3.4763 -10.757778,-5.2507 a 682.5,682.5 0 0 0 -4.437301,4.2851 c 1.638053,3.9361 3.271069,7.5784 4.872056,10.9344 0.588605,1.2339 1.172865,2.429 1.751449,3.5858 a 2.8125,2.8125 0 0 1 -0.666439,3.3071 665.625,665.625 0 0 0 -0.613458,0.61346 2.8125,2.8125 0 0 1 -3.307145,0.66644 c -1.156777,-0.57859 -2.3518794,-1.16285 -3.5857203,-1.75145 -3.3560244,-1.60099 -6.9983012,-3.23405 -10.9344719,-4.87205 a 682.5,682.5 0 0 0 -4.2850517,4.43729 c 1.7744252,3.87661 3.5335601,7.45968 5.2506958,10.75778 0.63130681,1.21255 1.25691894,2.38653 1.87552181,3.52241 a 2.8125,2.8125 0 0 1 -0.55061499,3.32839 665.625,665.625 0 0 0 -0.59167512,0.6345 2.8125,2.8125 0 0 1 -3.2818716,0.78145 c -1.1762654,-0.53786 -2.3910299,-1.08006 -3.6446611,-1.62525 -3.4098539,-1.48288 -7.1069029,-2.98779 -11.0978429,-4.48748 a 682.5,682.5 0 0 0 -4.127582,4.58415 c 1.908636,3.81232 3.791746,7.33181 5.622938,10.56798 0.67324,1.18977 1.339442,2.34121 1.99731,3.45481 a 2.8125,2.8125 0 0 1 -0.434121,3.34557 665.625,665.625 0 0 0 -0.569171,0.65476 2.8125,2.8125 0 0 1 -3.2526,0.89551 c -1.19432,-0.49648 -2.427267,-0.99595 -3.699161,-1.49705 -3.459528,-1.36299 -7.206846,-2.73795 -11.247694,-4.09744 a 682.5,682.5 0 0 0 -3.965083,4.7254 c 2.040522,3.74338 4.045313,7.19501 5.98833,10.365299 0.714352,1.16556 1.420334,2.29304 2.116665,3.383 a 2.8125,2.8125 0 0 1 -0.317097,3.35869 665.625,665.625 0 0 0 -0.545974,0.67423 2.8125,2.8125 0 0 1 -3.219366,1.00847 c -1.21092,-0.45449 -2.460546,-0.91063 -3.749154,-1.36704 -3.504989,-1.24142 -7.298009,-2.48477 -11.38384,-3.7024 a 682.5,682.5 0 0 0 -3.797754,4.8609 c 2.16992,3.66989 4.293951,7.04945 6.346426,10.15 0.754594,1.13991 1.499494,2.24207 2.23344,3.30707 a 2.8125,2.8125 0 0 1 -0.199687,3.36771 665.625,665.625 0 0 0 -0.522112,0.69286 2.8125,2.8125 0 0 1 -3.182209,1.12022 c -1.226044,-0.41196 -2.490828,-0.82421 -3.794579,-1.23537 -3.546179,-1.11833 -7.380281,-2.22855 -11.506118,-3.30285 a 682.5,682.5 0 0 0 -3.625797,4.99048 c 2.296676,3.59192 4.537358,6.8953 6.69679,9.92233 0.793917,1.11288 1.576828,2.18837 2.347494,3.22711 a 2.8125,2.8125 0 0 1 -0.08203,3.37262 665.625,665.625 0 0 0 -0.497613,0.71067 2.8125,2.8125 0 0 1 -3.141175,1.23059 c -1.239674,-0.36892 -2.518076,-0.73678 -3.835382,-1.10218 -3.583047,-0.9939 -7.45356,-1.96963 -11.614376,-2.89929 a 682.5,682.5 0 0 0 -3.449423,5.11398 c 2.420633,3.50958 4.775236,6.73274 7.038994,9.68257 0.832273,1.0845 1.652241,2.13201 2.458689,3.14321 a 2.8125,2.8125 0 0 1 0.03572,3.37344 665.625,665.625 0 0 0 -0.472508,0.7276 2.8125,2.8125 0 0 1 -3.096315,1.33947 c -1.251794,-0.32543 -2.542254,-0.64845 -3.871511,-0.96766 -3.615551,-0.86825 -7.517758,-1.70831 -11.708484,-2.49219 a 682.5,682.5 0 0 0 -3.268847,5.23125 c 2.541642,3.42297 5.007297,6.56199 7.372624,9.43101 0.869614,1.0548 1.72564,2.07305 2.566887,3.0555 a 2.8125,2.8125 0 0 1 0.153429,3.37013 665.625,665.625 0 0 0 -0.446827,0.74365 2.8125,2.8125 0 0 1 -3.047682,1.44671 c -1.262389,-0.28155 -2.563337,-0.55933 -3.902924,-0.83196 -3.64365,-0.74153 -7.572798,-1.4449 -11.788334,-2.08205 a 682.5,682.5 0 0 0 -3.08429,5.34215 c 2.65956,3.33218 5.23326,6.38324 7.697278,9.16797 0.905896,1.0238 1.796938,2.01156 2.671959,2.96405 a 2.8125,2.8125 0 0 1 0.270951,3.36272 665.625,665.625 0 0 0 -0.420601,0.75879 2.8125,2.8125 0 0 1 -2.995336,1.55219 c -1.271451,-0.23732 -2.581301,-0.46953 -3.929591,-0.69524 -3.6673,-0.61392 -7.61861,-1.17973 -11.8538,-1.66937 a 682.5,682.5 0 0 0 -2.89598,5.44653 c 2.77423,3.23733 5.45285,6.19671 8.01254,8.89375 0.94108,0.99156 1.86605,1.94763 2.77378,2.86899 a 2.8125,2.8125 0 0 1 0.38814,3.35123 665.625,665.625 0 0 0 -0.39386,0.773 2.8125,2.8125 0 0 1 -2.93934,1.65579 c -1.27896,-0.19281 -2.59611,-0.37916 -3.95145,-0.55768 -3.6865,-0.48556 -7.65515,-0.91313 -11.90485,-1.25467 a 682.5,682.5 0 0 0 -2.70413,5.54428 c 2.88552,3.13854 5.66578,6.00264 8.31805,8.6087 0.9751,0.95812 1.93288,1.88132 2.87221,2.77045 a 2.8125,2.8125 0 0 1 0.50486,3.33563 665.625,665.625 0 0 0 -0.36664,0.78628 2.8125,2.8125 0 0 1 -2.87977,1.75736 c -1.2849,-0.14805 -2.60776,-0.28833 -3.9685,-0.41944 -3.70121,-0.35661 -7.68235,-0.64541 -11.94139,-0.83842 a 682.5,682.5 0 0 0 -2.50898,5.63527 c 2.99329,3.03593 5.87181,5.80125 8.61341,8.31316 1.00795,0.9235 1.99736,1.81271 2.96715,2.66852 a 2.8125,2.8125 0 0 1 0.62097,3.31598 665.625,665.625 0 0 0 -0.33898,0.7986 2.8125,2.8125 0 0 1 -2.81668,1.85679 c -1.28929,-0.10312 -2.61624,-0.19715 -3.98073,-0.28069 -3.71139,-0.22722 -7.70019,-0.3769 -11.96337,-0.42116 a 682.5,682.5 0 0 0 -2.31079,5.7194 c 3.09742,2.92962 6.07071,5.59279 8.8983,8.00749 1.03956,0.88777 2.0594,1.74191 3.05847,2.56334 a 2.8125,2.8125 0 0 1 0.73632,3.2923 665.625,665.625 0 0 0 -0.31091,0.80993 2.8125,2.8125 0 0 1 -2.75016,1.95396 c -1.2921,-0.0581 -2.62152,-0.10571 -3.9881,-0.14158 -3.71706,-0.0976 -7.70865,-0.10794 -11.97078,-0.003 a 682.5,682.5 0 0 0 -2.10978,5.79657 c 3.19778,2.81973 6.26219,5.37752 9.17233,7.69207 1.06992,0.85094 2.11895,1.66897 3.14607,2.45504 a 2.8125,2.8125 0 0 1 0.85077,3.26459 665.625,665.625 0 0 0 -0.28245,0.82029 2.8125,2.8125 0 0 1 -2.6803,2.04875 c -1.29334,-0.0129 -2.62361,-0.0142 -3.99061,-0.002 -3.7182,0.0322 -7.70772,0.16115 -11.9636,0.41439 a 682.5,682.5 0 0 0 -1.9062,5.86666 c 3.29424,2.70641 6.44605,5.1557 9.4352,7.36727 1.09896,0.81309 2.17589,1.59401 3.22983,2.34375 a 2.8125,2.8125 0 0 1 0.96418,3.23291 665.625,665.625 0 0 0 -0.25365,0.82965 2.8125,2.8125 0 0 1 -2.60716,2.14104 c -1.29301,0.0322 -2.62251,0.0774 -3.98826,0.13696 -3.71481,0.16197 -7.69741,0.43005 -11.94186,0.83165 a 682.5,682.5 0 0 0 -1.70029,5.92962 c 3.38668,2.58979 6.62205,4.92759 9.68656,7.0335 1.12667,0.77423 2.2302,1.51709 3.30966,2.2296 a 2.8125,2.8125 0 0 1 1.07642,3.19729 665.625,665.625 0 0 0 -0.22454,0.838 2.8125,2.8125 0 0 1 -2.53085,2.23073 c -1.29109,0.0773 -2.61821,0.16888 -3.98105,0.27606 -3.7069,0.29151 -7.67771,0.69842 -11.90556,1.24791 a 682.5,682.5 0 0 0 -1.49231,5.98534 c 3.475,2.47003 6.78998,4.69349 9.92612,6.69116 1.153,0.73444 2.28179,1.43834 3.38546,2.11274 a 2.8125,2.8125 0 0 1 1.18734,3.15777 665.625,665.625 0 0 0 -0.19515,0.84533 2.8125,2.8125 0 0 1 -2.45146,2.31769 c -1.28761,0.12233 -2.61072,0.26016 -3.96899,0.41483 -3.69447,0.42071 -7.64866,0.96595 -11.85476,1.66265 a 682.5,682.5 0 0 0 -1.28252,6.03378 c 3.55909,2.34724 6.94966,4.45366 10.1536,6.34067 1.17793,0.69375 2.3306,1.35782 3.45713,1.99329 a 2.8125,2.8125 0 0 1 1.29683,3.11442 665.625,665.625 0 0 0 -0.16554,0.85162 2.8125,2.8125 0 0 1 -2.36908,2.40184 c -1.28255,0.16719 -2.60005,0.35111 -3.9521,0.55309 -3.67753,0.54938 -7.61028,1.23229 -11.7895,2.07536 a 682.5,682.5 0 0 0 -1.07117,6.07486 c 3.63884,2.22161 7.10085,4.20841 10.3687,5.98245 1.20143,0.65223 2.37657,1.27566 3.52459,1.87143 a 2.8125,2.8125 0 0 1 1.40473,3.06726 665.625,665.625 0 0 0 -0.13572,0.85688 2.8125,2.8125 0 0 1 -2.28381,2.48305 c -1.27594,0.21186 -2.58622,0.44164 -3.93039,0.69069 -3.65611,0.67739 -7.56264,1.49713 -11.70989,2.48554 a 682.5,682.5 0 0 0 -0.8585,6.10854 c 3.71415,2.09326 7.24339,3.95803 10.57116,5.61695 1.22346,0.60989 2.41964,1.19194 3.58775,1.74728 a 2.8125,2.8125 0 0 1 1.51092,3.01637 665.625,665.625 0 0 0 -0.10573,0.86109 2.8125,2.8125 0 0 1 -2.19576,2.56125 c -1.26777,0.25625 -2.56922,0.53162 -3.90389,0.82743 -3.63025,0.80458 -7.50578,1.76015 -11.61601,2.8927 a 682.5,682.5 0 0 0 -0.6448,6.13478 c 3.78495,1.96236 7.37712,3.70282 10.76076,5.24459 1.24399,0.56683 2.45976,1.10678 3.64654,1.62101 a 2.8125,2.8125 0 0 1 1.61527,2.9618 665.625,665.625 0 0 0 -0.0756,0.86426 2.8125,2.8125 0 0 1 -2.10504,2.63632 c -1.25805,0.30034 -2.54911,0.62096 -3.87263,0.96316 -3.59996,0.93079 -7.43979,2.02104 -11.50799,3.29634 a 682.5,682.5 0 0 0 -0.4303,6.15354 c 3.85112,1.82908 7.50185,3.44312 10.93723,4.86586 1.26302,0.52307 2.49689,1.02025 3.7009,1.49276 a 2.8125,2.8125 0 0 1 1.71765,2.90362 665.625,665.625 0 0 0 -0.0454,0.86637 2.8125,2.8125 0 0 1 -2.01176,2.70818 c -1.2468,0.34406 -2.52588,0.70955 -3.83665,1.09773 -3.56529,1.05585 -7.36473,2.27945 -11.38594,3.69595 a 682.5,682.5 0 0 0 -0.21528,6.16481 c 3.91261,1.69356 7.61744,3.17921 11.10038,4.48119 1.28051,0.47867 2.53098,0.9325 3.75074,1.36269 a 2.8125,2.8125 0 0 1 1.81794,2.84191 665.625,665.625 0 0 0 -0.0151,0.86743 2.8125,2.8125 0 0 1 -1.91601,2.77673 c -1.23404,0.38737 -2.49958,0.79727 -3.79601,1.23097 -3.52626,1.17963 -7.28069,2.53508 -11.25002,4.09105 a 682.5,682.5 0 0 0 0,6.16858 c 3.96933,1.55598 7.72376,2.91142 11.25002,4.09106 1.29643,0.43369 2.56197,0.84359 3.79601,1.23096 a 2.8125,2.8125 0 0 1 1.91601,2.77673 665.625,665.625 0 0 0 0.0151,0.86743 2.8125,2.8125 0 0 1 -1.81794,2.84191 c -1.21976,0.4302 -2.47023,0.88402 -3.75074,1.36269 -3.48294,1.30198 -7.18777,2.78763 -11.10038,4.48119 a 682.5,682.5 0 0 0 0.21528,6.16481 c 4.02121,1.41651 7.82065,2.6401 11.38594,3.69595 1.31077,0.38818 2.58985,0.75367 3.83665,1.09774 a 2.8125,2.8125 0 0 1 2.01176,2.70817 665.625,665.625 0 0 0 0.0454,0.86637 2.8125,2.8125 0 0 1 -1.71765,2.90362 c -1.20401,0.47251 -2.43788,0.9697 -3.7009,1.49276 -3.43538,1.42275 -7.08611,3.03678 -10.93723,4.86586 a 682.5,682.5 0 0 0 0.4303,6.15355 c 4.0682,1.2753 7.90803,2.36554 11.50799,3.29633 1.32352,0.3422 2.61458,0.66283 3.87263,0.96317 a 2.8125,2.8125 0 0 1 2.10504,2.63631 665.625,665.625 0 0 0 0.0756,0.86426 2.8125,2.8125 0 0 1 -1.61527,2.9618 c -1.18678,0.51423 -2.40255,1.05418 -3.64654,1.62101 -3.38364,1.54177 -6.97581,3.28223 -10.76076,5.24459 a 682.5,682.5 0 0 0 0.6448,6.13479 c 4.11023,1.13254 7.98576,2.08812 11.61601,2.8927 1.33467,0.2958 2.63612,0.57117 3.90389,0.82743 a 2.8125,2.8125 0 0 1 2.19576,2.56124 665.625,665.625 0 0 0 0.10573,0.86109 2.8125,2.8125 0 0 1 -1.51092,3.01637 c -1.16811,0.55534 -2.36429,1.13739 -3.58775,1.74729 -3.32777,1.65891 -6.85701,3.52368 -10.57116,5.61694 a 682.5,682.5 0 0 0 0.8585,6.10854 c 4.14725,0.98841 8.05378,1.80815 11.70989,2.48555 1.34417,0.24904 2.65445,0.47883 3.93039,0.69068 a 2.8125,2.8125 0 0 1 2.28381,2.48305 665.625,665.625 0 0 0 0.13572,0.85688 2.8125,2.8125 0 0 1 -1.40473,3.06726 c -1.14802,0.59577 -2.32316,1.21921 -3.52459,1.87143 -3.26785,1.77405 -6.72986,3.76085 -10.3687,5.98245 a 682.5,682.5 0 0 0 1.07117,6.07486 c 4.17922,0.84307 8.11197,1.52598 11.7895,2.07536 1.35205,0.20198 2.66955,0.3859 3.9521,0.5531 a 2.8125,2.8125 0 0 1 2.36908,2.40183 665.625,665.625 0 0 0 0.16554,0.85162 2.8125,2.8125 0 0 1 -1.29683,3.11442 c -1.12653,0.63547 -2.2792,1.29954 -3.45713,1.9933 -3.20394,1.88701 -6.59451,3.99342 -10.1536,6.34067 a 682.5,682.5 0 0 0 1.28252,6.03377 c 4.2061,0.69671 8.16029,1.24194 11.85476,1.66265 1.35827,0.15467 2.68138,0.2925 3.96899,0.41483 a 2.8125,2.8125 0 0 1 2.45146,2.31769 665.625,665.625 0 0 0 0.19515,0.84533 2.8125,2.8125 0 0 1 -1.18734,3.15777 c -1.10367,0.6744 -2.23246,1.3783 -3.38546,2.11274 -3.13614,1.99768 -6.45112,4.22114 -9.92612,6.69116 a 682.5,682.5 0 0 0 1.49231,5.98534 c 4.22785,0.54949 8.19866,0.9564 11.90556,1.24792 1.36284,0.10717 2.68996,0.19874 3.98105,0.27606 a 2.8125,2.8125 0 0 1 2.53085,2.23072 665.625,665.625 0 0 0 0.22454,0.838 2.8125,2.8125 0 0 1 -1.07642,3.19729 c -1.07946,0.71251 -2.18299,1.45537 -3.30966,2.2296 -3.06451,2.10591 -6.29988,4.44371 -9.68656,7.0335 a 682.5,682.5 0 0 0 1.70029,5.92962 c 4.24445,0.4016 8.22705,0.66968 11.94186,0.83165 1.36575,0.0596 2.69525,0.10474 3.98826,0.13696 a 2.8125,2.8125 0 0 1 2.60716,2.14104 665.625,665.625 0 0 0 0.25365,0.82965 2.8125,2.8125 0 0 1 -0.96418,3.23291 c -1.05394,0.74975 -2.13087,1.53067 -3.22983,2.34375 -2.98915,2.21157 -6.14096,4.66086 -9.4352,7.36727 a 682.5,682.5 0 0 0 1.9062,5.86667 c 4.25588,0.25323 8.2454,0.38215 11.9636,0.41438 1.367,0.0118 2.69727,0.0106 3.99061,-0.002 a 2.8125,2.8125 0 0 1 2.6803,2.04875 665.625,665.625 0 0 0 0.28245,0.8203 2.8125,2.8125 0 0 1 -0.85077,3.26458 c -1.02712,0.78607 -2.07615,1.6041 -3.14607,2.45504 -2.91014,2.31455 -5.97455,4.87234 -9.17233,7.69207 a 682.5,682.5 0 0 0 2.10978,5.79657 c 4.26213,0.10455 8.25372,0.0942 11.97078,-0.003 1.36658,-0.0359 2.696,-0.0835 3.9881,-0.14158 a 2.8125,2.8125 0 0 1 2.75016,1.95396 665.625,665.625 0 0 0 0.31091,0.80994 2.8125,2.8125 0 0 1 -0.73632,3.29229 c -0.99907,0.82144 -2.01891,1.67558 -3.05847,2.56334 -2.82759,2.4147 -5.80088,5.07788 -8.8983,8.00749 a 682.5,682.5 0 0 0 2.31079,5.7194 c 4.26318,-0.0443 8.25198,-0.19394 11.96337,-0.42116 1.36449,-0.0835 2.69144,-0.17757 3.98073,-0.28068 a 2.8125,2.8125 0 0 1 2.81668,1.85679 665.625,665.625 0 0 0 0.33898,0.79859 2.8125,2.8125 0 0 1 -0.62097,3.31598 c -0.96979,0.85581 -1.9592,1.74502 -2.96715,2.66852 -2.7416,2.51191 -5.62012,5.27723 -8.61341,8.31316 a 682.5,682.5 0 0 0 2.50898,5.63528 c 4.25904,-0.19302 8.24018,-0.48182 11.94139,-0.83843 1.36074,-0.13111 2.6836,-0.27138 3.9685,-0.41943 a 2.8125,2.8125 0 0 1 2.87977,1.75735 665.625,665.625 0 0 0 0.36664,0.78628 2.8125,2.8125 0 0 1 -0.50486,3.33564 c -0.93933,0.88912 -1.89711,1.81232 -2.87221,2.77044 -2.65227,2.60606 -5.43253,5.47016 -8.31805,8.6087 a 682.5,682.5 0 0 0 2.70413,5.54428 c 4.2497,-0.34154 8.21835,-0.7691 11.90485,-1.25466 1.35534,-0.17852 2.67249,-0.36488 3.95145,-0.55768 a 2.8125,2.8125 0 0 1 2.93934,1.65578 665.625,665.625 0 0 0 0.39386,0.773 2.8125,2.8125 0 0 1 -0.38814,3.35123 c -0.90773,0.92137 -1.8327,1.87743 -2.77378,2.86899 -2.55969,2.69704 -5.23831,5.65642 -8.01254,8.89375 a 682.5,682.5 0 0 0 2.89598,5.44653 c 4.23519,-0.48964 8.1865,-1.05545 11.8538,-1.66937 1.34829,-0.22571 2.65814,-0.45792 3.929589,-0.69524 a 2.8125,2.8125 0 0 1 2.995338,1.55219 665.625,665.625 0 0 0 0.420601,0.75879 2.8125,2.8125 0 0 1 -0.27095,3.36273 c -0.875022,0.95248 -1.766064,1.94024 -2.67196,2.96405 -2.464018,2.78472 -5.037718,5.83578 -7.697278,9.16797 a 682.5,682.5 0 0 0 3.08429,5.34214 c 4.215536,-0.63715 8.144684,-1.34051 11.788334,-2.08205 1.339587,-0.27263 2.640535,-0.55041 3.902922,-0.83196 a 2.8125,2.8125 0 0 1 3.047684,1.44671 665.625,665.625 0 0 0 0.446827,0.74365 2.8125,2.8125 0 0 1 -0.153428,3.37013 c -0.841248,0.98245 -1.697274,2.00071 -2.566888,3.0555 -2.365327,2.86902 -4.830982,6.00804 -7.372624,9.43101 a 682.5,682.5 0 0 0 3.268847,5.23125 c 4.190726,-0.78388 8.092933,-1.62394 11.708484,-2.49218 1.329257,-0.31922 2.619717,-0.64223 3.87151,-0.96767 a 2.8125,2.8125 0 0 1 3.096316,1.33947 665.625,665.625 0 0 0 0.472508,0.7276 2.8125,2.8125 0 0 1 -0.03572,3.37344 c -0.806449,1.0112 -1.626417,2.05871 -2.45869,3.14321 -2.263758,2.94983 -4.618361,6.17299 -7.038994,9.68257 a 682.5,682.5 0 0 0 3.449423,5.11398 c 4.160816,-0.92965 8.031329,-1.90539 11.614376,-2.89928 1.317306,-0.36541 2.595708,-0.73327 3.835381,-1.10219 a 2.8125,2.8125 0 0 1 3.141176,1.23059 665.625,665.625 0 0 0 0.497613,0.71067 2.8125,2.8125 0 0 1 0.08203,3.37263 c -0.770667,1.03873 -1.553578,2.11422 -2.347495,3.2271 -2.159432,3.02703 -4.400114,6.33041 -6.69679,9.92233 a 682.5,682.5 0 0 0 3.625797,4.99049 c 4.125837,-1.07431 7.959939,-2.18452 11.506118,-3.30286 1.303751,-0.41116 2.568535,-0.82341 3.794578,-1.23537 a 2.8125,2.8125 0 0 1 3.18221,1.12022 665.625,665.625 0 0 0 0.522112,0.69286 2.8125,2.8125 0 0 1 0.199687,3.36771 c -0.733946,1.065 -1.478846,2.16716 -2.23344,3.30707 -2.052475,3.10055 -4.176506,6.48011 -6.346426,10.15 a 682.5,682.5 0 0 0 3.797754,4.86091 c 4.085831,-1.21764 7.878851,-2.46099 11.38384,-3.70241 1.288608,-0.45641 2.538234,-0.91254 3.749153,-1.36704 a 2.8125,2.8125 0 0 1 3.219367,1.00848 665.625,665.625 0 0 0 0.545974,0.67422 2.8125,2.8125 0 0 1 0.317097,3.35869 c -0.696331,1.08996 -1.402313,2.21744 -2.116665,3.383 -1.943017,3.17029 -3.947808,6.62192 -5.98833,10.3653 a 682.5,682.5 0 0 0 3.965083,4.7254 c 4.040848,-1.35948 7.788166,-2.73445 11.247694,-4.09743 1.271894,-0.50111 2.504841,-1.00058 3.69916,-1.49706 a 2.8125,2.8125 0 0 1 3.252601,0.89551 665.625,665.625 0 0 0 0.569171,0.65476 2.8125,2.8125 0 0 1 0.434121,3.34558 c -0.657868,1.1136 -1.32407,2.26503 -1.99731,3.45481 -1.831192,3.23617 -3.714302,6.75566 -5.622938,10.56798 a 682.5,682.5 0 0 0 4.127582,4.58414 c 3.99094,-1.49969 7.687989,-3.00459 11.0978429,-4.48748 1.2536312,-0.54519 2.4683957,-1.08738 3.6446599,-1.62524 a 2.8125,2.8125 0 0 1 3.2818728,0.78145 665.625,665.625 0 0 0 0.59167512,0.63449 2.8125,2.8125 0 0 1 0.55061544,3.32839 c -0.61756132,1.13516 -1.24317345,2.30914 -1.87448026,3.52169 -1.7171357,3.29811 -3.4762706,6.88117 -5.2506958,10.75778 a 682.5,682.5 0 0 0 4.2850517,4.43726 c 3.9361707,-1.638 7.5784475,-3.27103 10.9344719,-4.87202 1.2338409,-0.5886 2.4289433,-1.17286 3.5857193,-1.75145 a 2.8125,2.8125 0 0 1 3.307146,0.66644 665.625,665.625 0 0 0 0.613458,0.61346 2.8125,2.8125 0 0 1 0.666439,3.30717 c -0.578584,1.1568 -1.162844,2.3519 -1.751449,3.5857 -1.600987,3.356 -3.234003,6.9983 -4.872056,10.9345 a 682.5,682.5 0 0 0 4.437301,4.285 c 3.876605,-1.7744 7.459672,-3.5335 10.757778,-5.2507 1.212548,-0.6313 2.386531,-1.2569 3.522411,-1.8755 a 2.8125,2.8125 0 0 1 3.328389,0.5506 665.625,665.625 0 0 0 0.634494,0.5917 2.8125,2.8125 0 0 1 0.781451,3.2819 c -0.537861,1.1762 -1.080056,2.391 -1.625242,3.6446 -1.482889,3.4099 -2.987797,7.1069 -4.487481,11.0979 a 682.5,682.5 0 0 0 4.584144,4.1276 c 3.812318,-1.9087 7.331809,-3.7918 10.567979,-5.623 1.189776,-0.6732 2.341211,-1.3394 3.45481,-1.9973 a 2.8125,2.8125 0 0 1 3.345578,0.4341 665.625,665.625 0 0 0 0.654756,0.5692 2.8125,2.8125 0 0 1 0.895511,3.2526 c -0.496483,1.1943 -0.995953,2.4273 -1.497056,3.6992 -1.362983,3.4595 -2.737949,7.2068 -4.097438,11.2476 a 682.5,682.5 0 0 0 4.725402,3.9651 c 3.743385,-2.0405 7.195012,-4.0453 10.365303,-5.9883 1.165556,-0.7143 2.29304,-1.4203 3.383001,-2.1167 a 2.8125,2.8125 0 0 1 3.35869,0.3171 665.625,665.625 0 0 0 0.674222,0.546 2.8125,2.8125 0 0 1 1.008479,3.2194 c -0.454499,1.2109 -0.910636,2.4605 -1.367045,3.7491 -1.241417,3.505 -2.484766,7.298 -3.702403,11.3839 a 682.5,682.5 0 0 0 4.860903,3.7977 c 3.669891,-2.1699 7.04945,-4.2939 10.149999,-6.3464 1.139915,-0.7546 2.242073,-1.4995 3.307069,-2.2334 a 2.8125,2.8125 0 0 1 3.367711,0.1996 665.625,665.625 0 0 0 0.692865,0.5222 2.8125,2.8125 0 0 1 1.120219,3.1822 c -0.411962,1.226 -0.824209,2.4908 -1.235368,3.7945 -1.118339,3.5462 -2.228555,7.3803 -3.302858,11.5062 a 682.5,682.5 0 0 0 4.990482,3.6258 c 3.591926,-2.2967 6.895298,-4.5374 9.922329,-6.6968 1.112886,-0.7939 2.188376,-1.5769 3.227112,-2.3475 a 2.8125,2.8125 0 0 1 3.37262,0.082 665.625,665.625 0 0 0 0.71067,0.4976 2.8125,2.8125 0 0 1 1.23059,3.1412 c -0.36892,1.2397 -0.73678,2.5181 -1.10218,3.8354 -0.9939,3.583 -1.96963,7.4535 -2.89929,11.6144 a 682.5,682.5 0 0 0 5.11398,3.4494 c 3.50958,-2.4207 6.73275,-4.7753 9.68257,-7.039 1.0845,-0.8323 2.13201,-1.6523 3.14321,-2.4587 a 2.8125,2.8125 0 0 1 3.37344,-0.036 665.625,665.625 0 0 0 0.7276,0.4725 2.8125,2.8125 0 0 1 1.33947,3.0963 c -0.32543,1.2518 -0.64845,2.5422 -0.96766,3.8715 -0.86825,3.6156 -1.70831,7.5178 -2.49219,11.7085 a 682.5,682.5 0 0 0 5.23125,3.2688 c 3.42297,-2.5416 6.56199,-5.0073 9.43101,-7.3726 1.0548,-0.8696 2.07305,-1.7256 3.0555,-2.5669 a 2.8125,2.8125 0 0 1 3.37013,-0.1534 665.625,665.625 0 0 0 0.74365,0.4468 2.8125,2.8125 0 0 1 1.44671,3.0477 c -0.28155,1.2624 -0.55933,2.5633 -0.83196,3.9029 -0.74153,3.6437 -1.4449,7.5728 -2.08204,11.7884 a 682.5,682.5 0 0 0 5.34214,3.0842 c 3.33218,-2.6595 6.38324,-5.2332 9.16797,-7.6972 1.0238,-0.9059 2.01156,-1.797 2.96405,-2.672 a 2.8125,2.8125 0 0 1 3.36272,-0.2709 665.625,665.625 0 0 0 0.75879,0.4206 2.8125,2.8125 0 0 1 1.55219,2.9953 c -0.23732,1.2714 -0.46953,2.5813 -0.69524,3.9296 -0.61392,3.6673 -1.17973,7.6186 -1.66937,11.8538 a 682.5,682.5 0 0 0 5.44653,2.896 c 3.23733,-2.7743 6.19671,-5.4529 8.89375,-8.0126 0.99156,-0.941 1.94763,-1.866 2.86899,-2.7738 a 2.8125,2.8125 0 0 1 3.35123,-0.3881 665.625,665.625 0 0 0 0.773,0.3939 2.8125,2.8125 0 0 1 1.65579,2.9393 c -0.19281,1.279 -0.37916,2.5961 -0.55768,3.9515 -0.48556,3.6865 -0.91313,7.6551 -1.25467,11.9048 a 682.5,682.5 0 0 0 5.54428,2.7041 c 3.13855,-2.8855 6.00264,-5.6657 8.6087,-8.318 0.95812,-0.9751 1.88132,-1.9329 2.77045,-2.8722 a 2.8125,2.8125 0 0 1 3.33563,-0.5049 665.625,665.625 0 0 0 0.78628,0.3667 2.8125,2.8125 0 0 1 1.75736,2.8797 c -0.14805,1.2849 -0.28833,2.6078 -0.41944,3.9685 -0.35661,3.7012 -0.64541,7.6824 -0.83842,11.9414 a 682.5,682.5 0 0 0 5.63527,2.509 c 3.03593,-2.9933 5.80125,-5.8718 8.31316,-8.6134 0.9235,-1.008 1.81271,-1.9974 2.66852,-2.9672 a 2.8125,2.8125 0 0 1 3.31598,-0.6209 665.625,665.625 0 0 0 0.7986,0.339 2.8125,2.8125 0 0 1 1.85679,2.8166 c -0.10312,1.2893 -0.19714,2.6163 -0.28068,3.9808 -0.22723,3.7113 -0.37691,7.7001 -0.42117,11.9633 a 682.5,682.5 0 0 0 5.7194,2.3108 c 2.92962,-3.0974 5.59279,-6.0707 8.00749,-8.8983 0.88777,-1.0395 1.74191,-2.0594 2.56334,-3.0585 a 2.8125,2.8125 0 0 1 3.2923,-0.7363 665.625,665.625 0 0 0 0.80993,0.3109 2.8125,2.8125 0 0 1 1.95396,2.7502 c -0.0581,1.2921 -0.10571,2.6215 -0.14158,3.9881 -0.0976,3.7171 -0.10794,7.7087 -0.003,11.9708 a 682.5,682.5 0 0 0 5.79657,2.1098 c 2.81973,-3.1978 5.37752,-6.2622 7.69207,-9.1724 0.85094,-1.0699 1.66897,-2.1189 2.45504,-3.146 a 2.8125,2.8125 0 0 1 3.26459,-0.8508 665.625,665.625 0 0 0 0.82029,0.2824 2.8125,2.8125 0 0 1 2.04875,2.6803 c -0.0129,1.2934 -0.0142,2.6236 -0.002,3.9906 0.0322,3.7182 0.16115,7.7078 0.41439,11.9636 a 682.5,682.5 0 0 0 5.86666,1.9062 c 2.70641,-3.2942 5.1557,-6.446 7.36727,-9.4351 0.81309,-1.099 1.59401,-2.1759 2.34375,-3.2299 a 2.8125,2.8125 0 0 1 3.23291,-0.9642 665.625,665.625 0 0 0 0.82965,0.2537 2.8125,2.8125 0 0 1 2.14104,2.6072 c 0.0322,1.293 0.0774,2.6225 0.13696,3.9882 0.16197,3.7148 0.43005,7.6974 0.83165,11.9419 a 682.5,682.5 0 0 0 5.92962,1.7003 c 2.5898,-3.3867 4.92759,-6.6221 7.0335,-9.6866 0.77424,-1.1267 1.51709,-2.2302 2.2296,-3.3097 a 2.8125,2.8125 0 0 1 3.19729,-1.0764 665.625,665.625 0 0 0 0.838,0.2246 2.8125,2.8125 0 0 1 2.23073,2.5308 c 0.0773,1.2911 0.16888,2.6182 0.27606,3.9811 0.29151,3.7069 0.69842,7.6777 1.24791,11.9055 a 682.5,682.5 0 0 0 5.98534,1.4923 c 2.47003,-3.475 4.69349,-6.79 6.69116,-9.9261 0.73444,-1.153 1.43834,-2.2818 2.11274,-3.3854 a 2.8125,2.8125 0 0 1 3.15777,-1.1874 665.625,665.625 0 0 0 0.84533,0.1952 2.8125,2.8125 0 0 1 2.31769,2.4514 c 0.12233,1.2876 0.26016,2.6107 0.41483,3.969 0.42071,3.6945 0.96595,7.6487 1.66265,11.8548 a 682.5,682.5 0 0 0 6.03378,1.2825 c 2.34724,-3.5591 4.45366,-6.9497 6.34067,-10.1536 0.69375,-1.1779 1.35782,-2.3306 1.99329,-3.4571 a 2.8125,2.8125 0 0 1 3.11442,-1.2969 665.625,665.625 0 0 0 0.85162,0.1656 2.8125,2.8125 0 0 1 2.40184,2.369 c 0.16719,1.2826 0.35111,2.6001 0.55309,3.9521 0.54938,3.6776 1.23229,7.6103 2.07536,11.7896 a 682.5,682.5 0 0 0 6.07486,1.0711 c 2.22161,-3.6388 4.20841,-7.1008 5.98245,-10.3687 0.65223,-1.2014 1.27566,-2.3765 1.87143,-3.5246 a 2.8125,2.8125 0 0 1 3.06726,-1.4047 665.625,665.625 0 0 0 0.85688,0.1357 2.8125,2.8125 0 0 1 2.48305,2.2838 c 0.21186,1.276 0.44164,2.5862 0.69069,3.9304 0.67739,3.6561 1.49713,7.5627 2.48554,11.7099 a 682.5,682.5 0 0 0 6.10854,0.8585 c 2.09326,-3.7141 3.95803,-7.2434 5.61695,-10.5712 0.6099,-1.2234 1.19194,-2.4196 1.74728,-3.5877 a 2.8125,2.8125 0 0 1 3.01637,-1.5109 665.625,665.625 0 0 0 0.86109,0.1057 2.8125,2.8125 0 0 1 2.56125,2.1958 c 0.25625,1.2677 0.53162,2.5692 0.82743,3.9039 0.80458,3.6302 1.76015,7.5057 2.8927,11.616 a 682.5,682.5 0 0 0 6.13478,0.6448 c 1.96236,-3.785 3.70282,-7.3772 5.24459,-10.7608 0.56683,-1.244 1.10678,-2.4598 1.62101,-3.6465 a 2.8125,2.8125 0 0 1 2.9618,-1.6153 665.625,665.625 0 0 0 0.86426,0.076 2.8125,2.8125 0 0 1 2.63632,2.105 c 0.30034,1.2581 0.62096,2.5491 0.96316,3.8727 0.93079,3.5999 2.02104,7.4398 3.29634,11.508 a 682.5,682.5 0 0 0 6.15354,0.4303 c 1.82908,-3.8512 3.44312,-7.5019 4.86586,-10.9373 0.52307,-1.263 1.02026,-2.4969 1.49276,-3.7009 a 2.8125,2.8125 0 0 1 2.90362,-1.7176 665.625,665.625 0 0 0 0.86637,0.045 2.8125,2.8125 0 0 1 2.70818,2.0117 c 0.34406,1.2468 0.70955,2.5259 1.09773,3.8367 1.05585,3.5653 2.27945,7.3647 3.69595,11.3859 a 682.5,682.5 0 0 0 6.16481,0.2153 c 1.69356,-3.9126 3.17921,-7.6174 4.48119,-11.1004 0.47867,-1.2805 0.9325,-2.531 1.36269,-3.7507 a 2.8125,2.8125 0 0 1 2.84191,-1.818 665.625,665.625 0 0 0 0.86743,0.015 2.8125,2.8125 0 0 1 2.77673,1.9161 c 0.38737,1.234 0.79727,2.4995 1.23097,3.796 1.17963,3.5262 2.53508,7.2806 4.09105,11.25 a 682.5,682.5 0 0 0 6.16858,0 c 1.55598,-3.9694 2.91142,-7.7238 4.09106,-11.25 0.43369,-1.2965 0.84359,-2.562 1.23096,-3.796 a 2.8125,2.8125 0 0 1 2.77673,-1.9161 665.625,665.625 0 0 0 0.86743,-0.015 2.8125,2.8125 0 0 1 2.84191,1.818 c 0.4302,1.2197 0.88402,2.4702 1.36269,3.7507 1.30198,3.483 2.78763,7.1878 4.48119,11.1004 a 682.5,682.5 0 0 0 6.16481,-0.2153 c 1.41651,-4.0212 2.6401,-7.8206 3.69595,-11.3859 0.38818,-1.3108 0.75367,-2.5899 1.09774,-3.8367 a 2.8125,2.8125 0 0 1 2.70817,-2.0117 665.625,665.625 0 0 0 0.86637,-0.045 2.8125,2.8125 0 0 1 2.90362,1.7176 c 0.47251,1.204 0.9697,2.4379 1.49276,3.7009 1.42275,3.4354 3.03679,7.0861 4.86586,10.9373 a 682.5,682.5 0 0 0 6.15355,-0.4303 c 1.2753,-4.0682 2.36554,-7.9081 3.29633,-11.508 0.3422,-1.3236 0.66283,-2.6146 0.96317,-3.8727 a 2.8125,2.8125 0 0 1 2.63631,-2.105 665.625,665.625 0 0 0 0.86426,-0.076 2.8125,2.8125 0 0 1 2.9618,1.6153 c 0.51423,1.1867 1.05418,2.4025 1.62101,3.6465 1.54177,3.3836 3.28223,6.9758 5.24459,10.7608 a 682.5,682.5 0 0 0 6.13479,-0.6448 c 1.13254,-4.1103 2.08812,-7.9858 2.8927,-11.616 0.2958,-1.3347 0.57117,-2.6362 0.82743,-3.9039 a 2.8125,2.8125 0 0 1 2.56124,-2.1958 665.625,665.625 0 0 0 0.86109,-0.1057 2.8125,2.8125 0 0 1 3.01637,1.5109 c 0.55534,1.1681 1.13739,2.3643 1.74729,3.5877 1.65891,3.3278 3.52368,6.8571 5.61694,10.5712 a 682.5,682.5 0 0 0 6.10854,-0.8585 c 0.98841,-4.1472 1.80815,-8.0538 2.48555,-11.7099 0.24904,-1.3442 0.47883,-2.6544 0.69068,-3.9304 a 2.8125,2.8125 0 0 1 2.48305,-2.2838 665.625,665.625 0 0 0 0.85688,-0.1357 2.8125,2.8125 0 0 1 3.06726,1.4047 c 0.59577,1.1481 1.21921,2.3232 1.87143,3.5246 1.77405,3.2679 3.76085,6.7299 5.98245,10.3687 a 682.5,682.5 0 0 0 6.07486,-1.0711 c 0.84307,-4.1793 1.52598,-8.112 2.07536,-11.7896 0.20198,-1.352 0.3859,-2.6695 0.5531,-3.952 a 2.8125,2.8125 0 0 1 2.40183,-2.3691 665.625,665.625 0 0 0 0.85162,-0.1656 2.8125,2.8125 0 0 1 3.11442,1.2969 c 0.63547,1.1265 1.29954,2.2792 1.9933,3.4571 1.88701,3.2039 3.99342,6.5945 6.34067,10.1536 a 682.5,682.5 0 0 0 6.03377,-1.2825 c 0.69671,-4.2061 1.24194,-8.1603 1.66265,-11.8548 0.15467,-1.3583 0.2925,-2.6814 0.41483,-3.969 a 2.8125,2.8125 0 0 1 2.31769,-2.4514 665.625,665.625 0 0 0 0.84533,-0.1952 2.8125,2.8125 0 0 1 3.15777,1.1874 c 0.6744,1.1036 1.3783,2.2324 2.11274,3.3854 1.99768,3.1361 4.22114,6.4511 6.69116,9.9261 a 682.5,682.5 0 0 0 5.98534,-1.4923 c 0.54949,-4.2278 0.9564,-8.1986 1.24792,-11.9055 0.10717,-1.3629 0.19874,-2.69 0.27606,-3.9811 a 2.8125,2.8125 0 0 1 2.23072,-2.5308 665.625,665.625 0 0 0 0.838,-0.2246 2.8125,2.8125 0 0 1 3.19729,1.0764 c 0.71251,1.0795 1.45537,2.183 2.2296,3.3097 2.10591,3.0645 4.44371,6.2999 7.03351,9.6866 a 682.5,682.5 0 0 0 5.92961,-1.7003 c 0.4016,-4.2445 0.66968,-8.2271 0.83165,-11.9419 0.0595,-1.3657 0.10474,-2.6952 0.13696,-3.9882 a 2.8125,2.8125 0 0 1 2.14104,-2.6072 665.625,665.625 0 0 0 0.82965,-0.2537 2.8125,2.8125 0 0 1 3.23291,0.9642 c 0.74975,1.054 1.53067,2.1309 2.34375,3.2299 2.21158,2.9891 4.66086,6.1409 7.36727,9.4351 a 682.5,682.5 0 0 0 5.86667,-1.9062 c 0.25323,-4.2558 0.38215,-8.2454 0.41438,-11.9636 0.0118,-1.367 0.0106,-2.6972 -0.002,-3.9906 a 2.8125,2.8125 0 0 1 2.04875,-2.6803 665.625,665.625 0 0 0 0.8203,-0.2824 2.8125,2.8125 0 0 1 3.26459,0.8508 c 0.78607,1.0271 1.60409,2.0761 2.45503,3.146 2.31455,2.9102 4.87234,5.9746 7.69207,9.1724 a 682.5,682.5 0 0 0 5.79657,-2.1098 c 0.10455,-4.2621 0.0942,-8.2537 -0.003,-11.9708 -0.0359,-1.3666 -0.0835,-2.696 -0.14158,-3.9881 a 2.8125,2.8125 0 0 1 1.95396,-2.7502 665.625,665.625 0 0 0 0.80994,-0.3109 2.8125,2.8125 0 0 1 3.29229,0.7363 c 0.82144,0.9991 1.67558,2.019 2.56334,3.0585 2.4147,2.8276 5.07788,5.8009 8.00749,8.8983 a 682.5,682.5 0 0 0 5.7194,-2.3108 c -0.0443,-4.2632 -0.19394,-8.252 -0.42116,-11.9633 -0.0835,-1.3645 -0.17757,-2.6915 -0.28068,-3.9808 a 2.8125,2.8125 0 0 1 1.85679,-2.8166 665.625,665.625 0 0 0 0.79859,-0.339 2.8125,2.8125 0 0 1 3.31598,0.6209 c 0.85581,0.9698 1.74502,1.9592 2.66852,2.9672 2.51191,2.7416 5.27723,5.6201 8.31316,8.6134 a 682.5,682.5 0 0 0 5.63528,-2.509 c -0.19302,-4.259 -0.48182,-8.2402 -0.83843,-11.9414 -0.13111,-1.3607 -0.27138,-2.6836 -0.41943,-3.9685 a 2.8125,2.8125 0 0 1 1.75735,-2.8797 665.625,665.625 0 0 0 0.78628,-0.3667 2.8125,2.8125 0 0 1 3.33564,0.5049 c 0.88912,0.9393 1.81232,1.8971 2.77044,2.8722 2.60606,2.6523 5.47016,5.4325 8.6087,8.318 a 682.5,682.5 0 0 0 5.54428,-2.7041 c -0.34154,-4.2497 -0.7691,-8.2183 -1.25466,-11.9048 -0.17852,-1.3554 -0.36488,-2.6725 -0.55768,-3.9515 a 2.8125,2.8125 0 0 1 1.65578,-2.9393 665.625,665.625 0 0 0 0.773,-0.3939 2.8125,2.8125 0 0 1 3.35123,0.3881 c 0.92137,0.9078 1.87743,1.8328 2.86899,2.7738 2.69704,2.5597 5.65642,5.2383 8.89376,8.0126 a 682.5,682.5 0 0 0 5.44652,-2.896 c -0.48964,-4.2352 -1.05545,-8.1865 -1.66937,-11.8538 -0.22571,-1.3483 -0.45792,-2.6582 -0.69524,-3.9296 a 2.8125,2.8125 0 0 1 1.55219,-2.9953 665.625,665.625 0 0 0 0.75879,-0.4206 2.8125,2.8125 0 0 1 3.36273,0.2709 c 0.95248,0.875 1.94024,1.7661 2.96405,2.672 2.78472,2.464 5.83578,5.0377 9.16797,7.6972 a 682.5,682.5 0 0 0 5.34214,-3.0842 c -0.63715,-4.2156 -1.34051,-8.1447 -2.08205,-11.7884 -0.27263,-1.3396 -0.55041,-2.6405 -0.83196,-3.9029 a 2.8125,2.8125 0 0 1 1.44671,-3.0477 665.625,665.625 0 0 0 0.74365,-0.4468 2.8125,2.8125 0 0 1 3.37013,0.1534 c 0.98245,0.8413 2.00071,1.6973 3.0555,2.5669 2.86902,2.3653 6.00805,4.831 9.43101,7.3726 a 682.5,682.5 0 0 0 5.23125,-3.2688 c -0.78388,-4.1907 -1.62394,-8.0929 -2.49218,-11.7085 -0.31922,-1.3293 -0.64223,-2.6197 -0.96767,-3.8715 a 2.8125,2.8125 0 0 1 1.33947,-3.0963 665.625,665.625 0 0 0 0.7276,-0.4725 2.8125,2.8125 0 0 1 3.37344,0.036 c 1.0112,0.8064 2.05871,1.6264 3.14321,2.4587 2.94983,2.2637 6.17299,4.6183 9.68257,7.039 a 682.5,682.5 0 0 0 5.11398,-3.4494 c -0.92965,-4.1609 -1.90539,-8.0314 -2.89928,-11.6144 -0.36541,-1.3173 -0.73327,-2.5957 -1.10219,-3.8354 a 2.8125,2.8125 0 0 1 1.23059,-3.1412 665.625,665.625 0 0 0 0.71067,-0.4976 2.8125,2.8125 0 0 1 3.37263,-0.082 c 1.03873,0.7706 2.11422,1.5536 3.22711,2.3475 3.02703,2.1594 6.3304,4.4001 9.92232,6.6968 a 682.5,682.5 0 0 0 4.99049,-3.6258 c -1.07431,-4.1259 -2.18452,-7.96 -3.30286,-11.5062 -0.41116,-1.3037 -0.82341,-2.5685 -1.23537,-3.7945 a 2.8125,2.8125 0 0 1 1.12022,-3.1822 665.625,665.625 0 0 0 0.69286,-0.5222 2.8125,2.8125 0 0 1 3.36771,-0.1996 c 1.065,0.7339 2.16716,1.4788 3.30707,2.2334 3.10055,2.0525 6.48011,4.1765 10.15,6.3464 a 682.5,682.5 0 0 0 4.86091,-3.7977 c -1.21764,-4.0859 -2.46099,-7.8789 -3.70241,-11.3839 -0.45641,-1.2886 -0.91254,-2.5382 -1.36704,-3.7491 a 2.8125,2.8125 0 0 1 1.00848,-3.2194 665.625,665.625 0 0 0 0.67422,-0.546 2.8125,2.8125 0 0 1 3.35869,-0.3171 c 1.08996,0.6964 2.21744,1.4024 3.383,2.1167 3.17029,1.943 6.62192,3.9478 10.3653,5.9883 a 682.5,682.5 0 0 0 4.7254,-3.9651 c -1.35948,-4.0408 -2.73445,-7.7881 -4.09743,-11.2476 -0.50111,-1.2719 -1.00058,-2.5049 -1.49706,-3.6992 a 2.8125,2.8125 0 0 1 0.89551,-3.2526 665.625,665.625 0 0 0 0.65476,-0.5692 2.8125,2.8125 0 0 1 3.34558,-0.4341 c 1.1136,0.6579 2.26503,1.3241 3.45481,1.9973 3.23617,1.8312 6.75566,3.7143 10.56797,5.623 a 682.5,682.5 0 0 0 4.58415,-4.1276 c -1.49969,-3.991 -3.00459,-7.688 -4.48748,-11.0979 -0.54519,-1.2536 -1.08738,-2.4684 -1.62524,-3.6446 a 2.8125,2.8125 0 0 1 0.78145,-3.2819 665.625,665.625 0 0 0 0.63449,-0.5917 2.8125,2.8125 0 0 1 3.32839,-0.5506 c 1.13588,0.6186 2.30986,1.2442 3.52241,1.8755 3.29811,1.7172 6.88117,3.4763 10.75778,5.2507 a 682.5,682.5 0 0 0 4.4373,-4.285 c -1.63805,-3.9362 -3.27107,-7.5785 -4.87206,-10.9345 -0.5886,-1.2338 -1.17286,-2.4289 -1.75145,-3.5857 a 2.8125,2.8125 0 0 1 0.66644,-3.30717 665.625,665.625 0 0 0 0.61346,-0.61346 2.8125,2.8125 0 0 1 3.30715,-0.66644 c 1.15677,0.57859 2.35188,1.16285 3.58572,1.75145 3.35602,1.60099 6.9983,3.23402 10.93447,4.87202 a 682.5,682.5 0 0 0 4.28505,-4.43726 c -1.77442,-3.87661 -3.53356,-7.45967 -5.2507,-10.75778 -0.6313,-1.21255 -1.25691,-2.38653 -1.87552,-3.52241 a 2.8125,2.8125 0 0 1 0.55062,-3.32839 665.625,665.625 0 0 0 0.59167,-0.63449 2.8125,2.8125 0 0 1 3.28187,-0.78145 c 1.17627,0.53786 2.39103,1.08005 3.64467,1.62524 3.40985,1.48289 7.1069,2.98779 11.09784,4.48748 a 682.5,682.5 0 0 0 4.12758,-4.58414 c -1.90863,-3.81232 -3.79175,-7.33181 -5.62294,-10.56798 -0.67324,-1.18978 -1.33944,-2.34121 -1.99731,-3.45481 a 2.8125,2.8125 0 0 1 0.43412,-3.34558 665.625,665.625 0 0 0 0.56917,-0.65476 2.8125,2.8125 0 0 1 3.2526,-0.89551 c 1.19432,0.49648 2.42727,0.99595 3.69917,1.49706 3.45952,1.36298 7.20678,2.73795 11.24768,4.09743 a 682.5,682.5 0 0 0 3.9651,-4.7254 c -2.0406,-3.74338 -4.0454,-7.19501 -5.9884,-10.3653 -0.7143,-1.16556 -1.4203,-2.29304 -2.1166,-3.383 a 2.8125,2.8125 0 0 1 0.3171,-3.35869 665.625,665.625 0 0 0 0.5459,-0.67422 2.8125,2.8125 0 0 1 3.2194,-1.00848 c 1.2109,0.4545 2.4605,0.91063 3.7491,1.36704 3.505,1.24142 7.2981,2.48477 11.3839,3.70241 a 682.5,682.5 0 0 0 3.7977,-4.86091 c -2.1699,-3.66989 -4.2939,-7.04945 -6.3464,-10.15 -0.7546,-1.13991 -1.4995,-2.24207 -2.2334,-3.30707 a 2.8125,2.8125 0 0 1 0.1997,-3.36771 665.625,665.625 0 0 0 0.5221,-0.69286 2.8125,2.8125 0 0 1 3.1822,-1.12022 c 1.226,0.41196 2.4908,0.82421 3.7946,1.23537 3.5461,1.11834 7.3802,2.22855 11.5061,3.30286 a 682.5,682.5 0 0 0 3.6258,-4.99049 c -2.2967,-3.59192 -4.5374,-6.8953 -6.6968,-9.92233 -0.7939,-1.11288 -1.5768,-2.18837 -2.3475,-3.2271 a 2.8125,2.8125 0 0 1 0.082,-3.37263 665.625,665.625 0 0 0 0.4976,-0.71067 2.8125,2.8125 0 0 1 3.1412,-1.23059 c 1.2397,0.36892 2.5181,0.73678 3.8354,1.10219 3.583,0.99389 7.4536,1.96963 11.6144,2.89928 a 682.5,682.5 0 0 0 3.4494,-5.11398 c -2.4206,-3.50958 -4.7752,-6.73274 -7.039,-9.68257 -0.8323,-1.0845 -1.6522,-2.13201 -2.4587,-3.14321 a 2.8125,2.8125 0 0 1 -0.036,-3.37344 665.625,665.625 0 0 0 0.4725,-0.7276 2.8125,2.8125 0 0 1 3.0963,-1.33947 c 1.2518,0.32544 2.5423,0.64845 3.8715,0.96767 3.6156,0.86824 7.5178,1.7083 11.7085,2.49218 a 682.5,682.5 0 0 0 3.2689,-5.23125 c -2.5417,-3.42297 -5.0073,-6.56199 -7.3727,-9.43101 -0.8696,-1.05479 -1.7256,-2.07305 -2.5669,-3.0555 a 2.8125,2.8125 0 0 1 -0.1534,-3.37013 665.625,665.625 0 0 0 0.4468,-0.74365 2.8125,2.8125 0 0 1 3.0477,-1.44671 c 1.2624,0.28155 2.5634,0.55933 3.903,0.83196 3.6436,0.74154 7.5728,1.4449 11.7883,2.08205 a 682.5,682.5 0 0 0 3.0843,-5.34214 c -2.6596,-3.33219 -5.2333,-6.38325 -7.6973,-9.16797 -0.9059,-1.02381 -1.7969,-2.01157 -2.672,-2.96405 a 2.8125,2.8125 0 0 1 -0.2709,-3.36273 665.625,665.625 0 0 0 0.4206,-0.75879 2.8125,2.8125 0 0 1 2.9953,-1.55219 c 1.2715,0.23732 2.5813,0.46953 3.9296,0.69524 3.6673,0.61392 7.6186,1.17973 11.8538,1.66937 a 682.5,682.5 0 0 0 2.896,-5.44653 c -2.7742,-3.23733 -5.4529,-6.19671 -8.0126,-8.89375 -0.941,-0.99156 -1.866,-1.94762 -2.7737,-2.86899 a 2.8125,2.8125 0 0 1 -0.3882,-3.35123 665.625,665.625 0 0 0 0.3939,-0.773 2.8125,2.8125 0 0 1 2.9393,-1.65578 c 1.279,0.1928 2.5961,0.37916 3.9515,0.55768 3.6865,0.48556 7.6551,0.91312 11.9048,1.25466 a 682.5,682.5 0 0 0 2.7042,-5.54428 c -2.8856,-3.13854 -5.6658,-6.00264 -8.3181,-8.6087 -0.9751,-0.95812 -1.9329,-1.88132 -2.8722,-2.77044 a 2.8125,2.8125 0 0 1 -0.5049,-3.33564 665.625,665.625 0 0 0 0.3667,-0.78628 2.8125,2.8125 0 0 1 2.8798,-1.75735 c 1.2849,0.14805 2.6077,0.28832 3.9685,0.41943 3.7012,0.35661 7.6823,0.64541 11.9413,0.83843 a 682.5,682.5 0 0 0 2.509,-5.63528 c -2.9933,-3.03593 -5.8718,-5.80125 -8.6134,-8.31316 -1.0079,-0.9235 -1.9973,-1.81271 -2.9671,-2.66852 a 2.8125,2.8125 0 0 1 -0.621,-3.31598 665.625,665.625 0 0 0 0.339,-0.79859 2.8125,2.8125 0 0 1 2.8167,-1.85679 c 1.2892,0.10311 2.6162,0.19714 3.9807,0.28068 3.7114,0.22722 7.7002,0.3769 11.9634,0.42116 a 682.5,682.5 0 0 0 2.3107,-5.7194 c -3.0974,-2.92961 -6.0707,-5.59279 -8.8983,-8.00749 -1.0395,-0.88776 -2.0594,-1.7419 -3.0584,-2.56334 a 2.8125,2.8125 0 0 1 -0.7363,-3.29229 665.625,665.625 0 0 0 0.3109,-0.80994 2.8125,2.8125 0 0 1 2.7501,-1.95396 c 1.2921,0.0581 2.6215,0.10571 3.9881,0.14158 3.7171,0.0976 7.7087,0.10795 11.9708,0.003 a 682.5,682.5 0 0 0 2.1098,-5.79657 c -3.1978,-2.81973 -6.2622,-5.37752 -9.1724,-7.69207 -1.0699,-0.85094 -2.1189,-1.66897 -3.146,-2.45503 a 2.8125,2.8125 0 0 1 -0.8508,-3.26459 665.625,665.625 0 0 0 0.2825,-0.8203 2.8125,2.8125 0 0 1 2.6803,-2.04875 c 1.2933,0.0129 2.6236,0.0142 3.9906,0.002 3.7182,-0.0322 7.7077,-0.16115 11.9636,-0.41438 a 682.5,682.5 0 0 0 1.9062,-5.86667 c -3.2943,-2.70641 -6.4461,-5.1557 -9.4352,-7.36727 -1.099,-0.81308 -2.1759,-1.594 -3.2299,-2.34375 a 2.8125,2.8125 0 0 1 -0.9641,-3.23291 665.625,665.625 0 0 0 0.2536,-0.82965 2.8125,2.8125 0 0 1 2.6072,-2.14104 c 1.293,-0.0322 2.6225,-0.0774 3.9882,-0.13696 3.7148,-0.16197 7.6974,-0.43005 11.9419,-0.83165 a 682.5,682.5 0 0 0 1.7003,-5.92962 c -3.3867,-2.58979 -6.6221,-4.92759 -9.6866,-7.0335 -1.1266,-0.77423 -2.2302,-1.51709 -3.3096,-2.2296 a 2.8125,2.8125 0 0 1 -1.0765,-3.19729 665.625,665.625 0 0 0 0.2246,-0.838 2.8125,2.8125 0 0 1 2.5308,-2.23072 c 1.2911,-0.0773 2.6182,-0.16889 3.9811,-0.27606 3.7069,-0.29152 7.6777,-0.69843 11.9055,-1.24792 a 682.5,682.5 0 0 0 1.4924,-5.98534 c -3.475,-2.47002 -6.79,-4.69348 -9.9262,-6.69116 -1.153,-0.73444 -2.2818,-1.43834 -3.3854,-2.11274 a 2.8125,2.8125 0 0 1 -1.1874,-3.15777 665.625,665.625 0 0 0 0.1952,-0.84533 2.8125,2.8125 0 0 1 2.4514,-2.31769 c 1.2877,-0.12233 2.6108,-0.26016 3.969,-0.41483 3.6945,-0.42071 7.6487,-0.96594 11.8548,-1.66265 a 682.5,682.5 0 0 0 1.2825,-6.03377 c -3.5591,-2.34725 -6.9496,-4.45366 -10.1536,-6.34067 -1.1779,-0.69376 -2.3306,-1.35783 -3.4571,-1.9933 a 2.8125,2.8125 0 0 1 -1.2968,-3.11442 665.625,665.625 0 0 0 0.1655,-0.85162 2.8125,2.8125 0 0 1 2.3691,-2.40183 c 1.2825,-0.1672 2.6,-0.35112 3.9521,-0.5531 3.6775,-0.54938 7.6103,-1.23229 11.7895,-2.07536 a 682.5,682.5 0 0 0 1.0711,-6.07486 c -3.6388,-2.2216 -7.1008,-4.2084 -10.3687,-5.98245 -1.2014,-0.65222 -2.3765,-1.27566 -3.5245,-1.87143 a 2.8125,2.8125 0 0 1 -1.4048,-3.06726 665.625,665.625 0 0 0 0.1357,-0.85688 2.8125,2.8125 0 0 1 2.2839,-2.48305 c 1.2759,-0.21185 2.5862,-0.44164 3.9303,-0.69068 3.6562,-0.6774 7.5627,-1.49714 11.7099,-2.48555 a 682.5,682.5 0 0 0 0.8585,-6.10854 c -3.7141,-2.09326 -7.2434,-3.95803 -10.5711,-5.61694 -1.2235,-0.6099 -2.4197,-1.19195 -3.5878,-1.74729 a 2.8125,2.8125 0 0 1 -1.5109,-3.01637 665.625,665.625 0 0 0 0.1057,-0.86109 2.8125,2.8125 0 0 1 2.1958,-2.56124 c 1.2678,-0.25626 2.5692,-0.53163 3.9039,-0.82743 3.6302,-0.80458 7.5058,-1.76016 11.616,-2.8927 a 682.5,682.5 0 0 0 0.6448,-6.13479 c -3.785,-1.96236 -7.3771,-3.70282 -10.7608,-5.24459 -1.244,-0.56683 -2.4597,-1.10678 -3.6465,-1.62101 a 2.8125,2.8125 0 0 1 -1.6153,-2.9618 665.625,665.625 0 0 0 0.076,-0.86426 2.8125,2.8125 0 0 1 2.1051,-2.63631 c 1.258,-0.30034 2.5491,-0.62097 3.8726,-0.96317 3.6,-0.93079 7.4398,-2.02103 11.508,-3.29633 a 682.5,682.5 0 0 0 0.4303,-6.15355 c -3.8511,-1.82908 -7.5019,-3.44311 -10.9372,-4.86586 -1.2631,-0.52306 -2.4969,-1.02025 -3.7009,-1.49276 a 2.8125,2.8125 0 0 1 -1.7177,-2.90362 665.625,665.625 0 0 0 0.045,-0.86637 2.8125,2.8125 0 0 1 2.0118,-2.70817 c 1.2468,-0.34407 2.5259,-0.70956 3.8366,-1.09774 3.5653,-1.05585 7.3647,-2.27944 11.386,-3.69595 a 682.5,682.5 0 0 0 0.2152,-6.16481 c -3.9126,-1.69356 -7.6174,-3.17921 -11.1003,-4.48119 -1.2805,-0.47867 -2.531,-0.93249 -3.7508,-1.36269 a 2.8125,2.8125 0 0 1 -1.8179,-2.84191 665.625,665.625 0 0 0 0.015,-0.86743 2.8125,2.8125 0 0 1 1.916,-2.77673 z"
       style="opacity:1;fill:none;stroke:#000000;stroke-width:1;stroke-miterlimit:4;stroke-dasharray:none"
       inkscape:label="Gear 180"
       id="path3341"
       inkscape:connector-curvature="0" />
    <path
       id="path4153"
       inkscape:label="Gear 18"
       style="fill:none;stroke:#000000;stroke-width:1;stroke-miterlimit:4;stroke-dasharray:none"
       d="m 1304.0346,532.09198 2.6737,-0.26843 c 0.3427,-0.0131 1.3738,-0.009 3.0959,0.3679 2.0583,0.45852 5.015,1.44634 8.6403,3.55667 a 75,75 0 0 1 0,5.10489 c -3.6253,2.11033 -6.582,3.09815 -8.6403,3.55668 -1.7221,0.37723 -2.7532,0.38104 -3.0959,0.36789 l -2.6737,-0.26843 a 2.8125,2.8125 0 0 0 -3.068,2.37933 58.125,58.125 0 0 1 -0.5297,3.00382 2.8125,2.8125 0 0 0 2.0692,3.28517 l 2.6043,0.66222 c 0.3265,0.10485 1.2941,0.46109 2.7833,1.40456 1.7774,1.13487 4.218,3.07437 6.9029,6.29737 a 75,75 0 0 1 -1.746,4.79702 c -4.1284,0.74313 -7.2447,0.66012 -9.3357,0.387 -1.7473,-0.23451 -2.7175,-0.58358 -3.035,-0.71315 l -2.4207,-1.16669 a 2.8125,2.8125 0 0 0 -3.6968,1.1865 58.125,58.125 0 0 1 -1.5251,2.64152 2.8125,2.8125 0 0 0 0.8209,3.79477 l 2.2207,1.51299 c 0.271,0.21021 1.0584,0.8759 2.1351,2.27182 1.2821,1.67433 2.9121,4.33158 4.3327,8.27849 a 75,75 0 0 1 -3.2813,3.91057 c -4.1337,-0.71369 -7.0336,-1.85752 -8.9051,-2.82935 -1.5617,-0.81797 -2.354,-1.47781 -2.6081,-1.70817 l -1.8756,-1.92424 a 2.8125,2.8125 0 0 0 -3.8797,-0.14943 58.125,58.125 0 0 1 -2.3365,1.9606 2.8125,2.8125 0 0 0 -0.5266,3.84667 l 1.5693,2.18127 c 0.1828,0.29022 0.695,1.18507 1.2294,2.86506 0.6321,2.01185 1.2549,5.06634 1.24,9.26112 a 75,75 0 0 1 -4.421,2.55244 c -3.6402,-2.08444 -5.9741,-4.15112 -7.4003,-5.70444 -1.1878,-1.30276 -1.7066,-2.1938 -1.8666,-2.49717 l -1.1043,-2.44969 a 2.8125,2.8125 0 0 0 -3.5946,-1.46734 58.125,58.125 0 0 1 -2.8662,1.04321 2.8125,2.8125 0 0 0 -1.8105,3.4346 l 0.7287,2.58646 c 0.072,0.33522 0.2477,1.3513 0.1753,3.11274 -0.094,2.1067 -0.5536,5.19002 -2.0023,9.12671 a 75,75 0 0 1 -5.0273,0.88645 c -2.7078,-3.20377 -4.1941,-5.94403 -5.0031,-7.89149 -0.6705,-1.63043 -0.8533,-2.64518 -0.8999,-2.98497 l -0.1999,-2.67968 a 2.8125,2.8125 0 0 0 -2.8759,-2.60827 58.125,58.125 0 0 1 -3.0502,0 2.8125,2.8125 0 0 0 -2.8759,2.60827 l -0.2,2.67968 c -0.046,0.33979 -0.2293,1.35454 -0.8999,2.98497 -0.809,1.94746 -2.2952,4.68772 -5.003,7.89149 a 75,75 0 0 1 -5.0273,-0.88645 c -1.4488,-3.93669 -1.9082,-7.02001 -2.0023,-9.12671 -0.072,-1.76144 0.1028,-2.77752 0.1753,-3.11274 l 0.7286,-2.58646 a 2.8125,2.8125 0 0 0 -1.8104,-3.4346 58.125,58.125 0 0 1 -2.8662,-1.04321 2.8125,2.8125 0 0 0 -3.5946,1.46734 l -1.1044,2.44969 c -0.1599,0.30337 -0.6788,1.19441 -1.8665,2.49717 -1.4263,1.55332 -3.7601,3.62 -7.4004,5.70444 a 75,75 0 0 1 -4.4209,-2.55244 c -0.015,-4.19478 0.6079,-7.24927 1.24,-9.26112 0.5343,-1.67999 1.0466,-2.57484 1.2293,-2.86506 l 1.5693,-2.18127 a 2.8125,2.8125 0 0 0 -0.5265,-3.84667 58.125,58.125 0 0 1 -2.3366,-1.9606 2.8125,2.8125 0 0 0 -3.8796,0.14943 l -1.8756,1.92424 c -0.2541,0.23036 -1.0464,0.8902 -2.6081,1.70817 -1.8715,0.97183 -4.7715,2.11566 -8.9051,2.82935 a 75,75 0 0 1 -3.2814,-3.91057 c 1.4207,-3.94691 3.0507,-6.60416 4.3328,-8.27849 1.0767,-1.39592 1.8641,-2.06161 2.1351,-2.27182 l 2.2207,-1.51299 a 2.8125,2.8125 0 0 0 0.8208,-3.79477 58.125,58.125 0 0 1 -1.5251,-2.64152 2.8125,2.8125 0 0 0 -3.6967,-1.1865 l -2.4207,1.16669 c -0.3175,0.12957 -1.2877,0.47864 -3.035,0.71315 -2.091,0.27312 -5.2073,0.35613 -9.3357,-0.387 a 75,75 0 0 1 -1.746,-4.79702 c 2.6849,-3.223 5.1254,-5.1625 6.9028,-6.29737 1.4892,-0.94347 2.4568,-1.29971 2.7834,-1.40456 l 2.6042,-0.66222 a 2.8125,2.8125 0 0 0 2.0693,-3.28517 58.125,58.125 0 0 1 -0.5297,-3.00382 2.8125,2.8125 0 0 0 -3.068,-2.37933 l -2.6737,0.26843 c -0.3427,0.0131 -1.3738,0.009 -3.0959,-0.36789 -2.0584,-0.45853 -5.0151,-1.44635 -8.6404,-3.55668 a 75,75 0 0 1 0,-5.10489 c 3.6253,-2.11033 6.582,-3.09815 8.6404,-3.55667 1.7221,-0.37724 2.7532,-0.38105 3.0959,-0.3679 l 2.6737,0.26843 a 2.8125,2.8125 0 0 0 3.068,-2.37933 58.125,58.125 0 0 1 0.5297,-3.00382 2.8125,2.8125 0 0 0 -2.0693,-3.28517 l -2.6042,-0.66222 c -0.3266,-0.10485 -1.2942,-0.46109 -2.7834,-1.40456 -1.7774,-1.13487 -4.2179,-3.07437 -6.9028,-6.29737 a 75,75 0 0 1 1.746,-4.79701 c 4.1284,-0.74314 7.2447,-0.66013 9.3357,-0.38701 1.7473,0.23451 2.7175,0.58358 3.035,0.71315 l 2.4207,1.16669 a 2.8125,2.8125 0 0 0 3.6967,-1.1865 58.125,58.125 0 0 1 1.5251,-2.64152 2.8125,2.8125 0 0 0 -0.8208,-3.79477 l -2.2207,-1.51299 c -0.271,-0.21021 -1.0584,-0.8759 -2.1351,-2.27182 -1.2821,-1.67433 -2.9121,-4.33158 -4.3328,-8.27849 a 75,75 0 0 1 3.2814,-3.91057 c 4.1336,0.71369 7.0336,1.85752 8.9051,2.82935 1.5617,0.81797 2.354,1.47781 2.6081,1.70817 l 1.8756,1.92424 a 2.8125,2.8125 0 0 0 3.8796,0.14943 58.125,58.125 0 0 1 2.3366,-1.9606 2.8125,2.8125 0 0 0 0.5265,-3.84667 l -1.5693,-2.18127 c -0.1827,-0.29022 -0.695,-1.18507 -1.2293,-2.86506 -0.6321,-2.01185 -1.255,-5.06634 -1.24,-9.26112 a 75,75 0 0 1 4.4209,-2.55244 c 3.6403,2.08444 5.9741,4.15112 7.4004,5.70444 1.1877,1.30276 1.7066,2.1938 1.8665,2.49717 l 1.1044,2.44969 a 2.8125,2.8125 0 0 0 3.5946,1.46734 58.125,58.125 0 0 1 2.8662,-1.04321 2.8125,2.8125 0 0 0 1.8104,-3.4346 l -0.7286,-2.58646 c -0.072,-0.33522 -0.2477,-1.3513 -0.1753,-3.11273 0.094,-2.10671 0.5535,-5.19003 2.0023,-9.12672 a 75,75 0 0 1 5.0273,-0.88645 c 2.7078,3.20377 4.194,5.94403 5.003,7.89149 0.6706,1.63043 0.8534,2.64518 0.8999,2.98497 l 0.2,2.67968 a 2.8125,2.8125 0 0 0 2.8759,2.60827 58.125,58.125 0 0 1 3.0502,0 2.8125,2.8125 0 0 0 2.8759,-2.60827 l 0.1999,-2.67968 c 0.047,-0.33979 0.2294,-1.35454 0.8999,-2.98497 0.809,-1.94746 2.2953,-4.68772 5.0031,-7.89149 a 75,75 0 0 1 5.0273,0.88645 c 1.4487,3.93669 1.9081,7.02001 2.0023,9.12672 0.072,1.76143 -0.1029,2.77751 -0.1753,3.11273 l -0.7287,2.58646 a 2.8125,2.8125 0 0 0 1.8105,3.4346 58.125,58.125 0 0 1 2.8662,1.04321 2.8125,2.8125 0 0 0 3.5946,-1.46734 l 1.1043,-2.44969 c 0.16,-0.30337 0.6788,-1.19441 1.8666,-2.49717 1.4262,-1.55332 3.7601,-3.62 7.4003,-5.70444 a 75,75 0 0 1 4.421,2.55244 c 0.015,4.19478 -0.6079,7.24927 -1.24,9.26112 -0.5344,1.67999 -1.0466,2.57484 -1.2294,2.86506 l -1.5693,2.18127 a 2.8125,2.8125 0 0 0 0.5266,3.84667 58.125,58.125 0 0 1 2.3365,1.9606 2.8125,2.8125 0 0 0 3.8797,-0.14943 l 1.8756,-1.92424 c 0.2541,-0.23036 1.0464,-0.8902 2.6081,-1.70817 1.8715,-0.97183 4.7714,-2.11566 8.9051,-2.82935 a 75,75 0 0 1 3.2813,3.91057 c -1.4206,3.94691 -3.0506,6.60416 -4.3327,8.27849 -1.0767,1.39592 -1.8641,2.06161 -2.1351,2.27182 l -2.2207,1.51299 a 2.8125,2.8125 0 0 0 -0.8209,3.79477 58.125,58.125 0 0 1 1.5251,2.64152 2.8125,2.8125 0 0 0 3.6968,1.1865 l 2.4207,-1.16669 c 0.3175,-0.12957 1.2877,-0.47864 3.035,-0.71315 2.091,-0.27312 5.2073,-0.35613 9.3357,0.38701 a 75,75 0 0 1 1.746,4.79701 c -2.6849,3.223 -5.1255,5.1625 -6.9029,6.29737 -1.4892,0.94347 -2.4568,1.29971 -2.7833,1.40456 l -2.6043,0.66222 a 2.8125,2.8125 0 0 0 -2.0692,3.28517 58.125,58.125 0 0 1 0.5297,3.00382 2.8125,2.8125 0 0 0 3.068,2.37933 z"
       inkscape:connector-curvature="0" />
  </g>
</svg>
